<svg width="44" height="44" viewBox="0 0 44 44" fill="none" xmlns="http://www.w3.org/2000/svg">
<path d="M34.2247 14.4168C33.9123 14.0511 33.5212 13.7569 33.0792 13.5553C32.6372 13.3537 32.155 13.2494 31.6671 13.25H13.7111L13.6645 12.8698C13.569 12.0794 13.1796 11.3506 12.57 10.8217C11.9604 10.2927 11.173 10.0004 10.3571 10H10.1106C9.81604 10 9.53356 10.1141 9.32528 10.3173C9.11701 10.5205 9 10.796 9 11.0833C9 11.3707 9.11701 11.6462 9.32528 11.8494C9.53356 12.0525 9.81604 12.1667 10.1106 12.1667H10.3571C10.6292 12.1667 10.8917 12.2641 11.095 12.4404C11.2983 12.6168 11.4281 12.8597 11.4599 13.1233L12.9881 25.7983C13.1468 27.1164 13.796 28.3319 14.8127 29.214C15.8294 30.0961 17.1427 30.5834 18.5033 30.5833H30.1011C30.3957 30.5833 30.6782 30.4692 30.8864 30.266C31.0947 30.0629 31.2117 29.7873 31.2117 29.5C31.2117 29.2127 31.0947 28.9371 30.8864 28.734C30.6782 28.5308 30.3957 28.4167 30.1011 28.4167H18.5033C17.8159 28.4148 17.1459 28.2055 16.5852 27.8177C16.0245 27.4298 15.6006 26.8822 15.3714 26.25H28.6096C29.9115 26.2501 31.1721 25.8039 32.1711 24.9895C33.17 24.175 33.8438 23.0441 34.0748 21.7943L34.9466 17.0774C35.0336 16.6094 35.0141 16.1285 34.8893 15.6687C34.7646 15.2089 34.5377 14.7815 34.2247 14.4168ZM32.7665 16.6928L31.8936 21.4097C31.7549 22.1604 31.3499 22.8397 30.7496 23.3285C30.1492 23.8173 29.3916 24.0845 28.6096 24.0833H15.0183L13.9732 15.4167H31.6671C31.8302 15.4157 31.9916 15.4498 32.1396 15.5166C32.2877 15.5834 32.4189 15.6812 32.5239 15.803C32.6289 15.9248 32.705 16.0677 32.747 16.2215C32.7889 16.3753 32.7956 16.5362 32.7665 16.6928Z" fill="black"/>
<path d="M16.7741 36C18.0008 36 18.9953 35.03 18.9953 33.8333C18.9953 32.6367 18.0008 31.6667 16.7741 31.6667C15.5474 31.6667 14.5529 32.6367 14.5529 33.8333C14.5529 35.03 15.5474 36 16.7741 36Z" fill="black"/>
<path d="M27.88 36C29.1067 36 30.1011 35.03 30.1011 33.8333C30.1011 32.6367 29.1067 31.6667 27.88 31.6667C26.6532 31.6667 25.6588 32.6367 25.6588 33.8333C25.6588 35.03 26.6532 36 27.88 36Z" fill="black"/>
</svg>
