<?xml version="1.0" standalone="no"?>
<!DOCTYPE svg PUBLIC "-//W3C//DTD SVG 20010904//EN"
 "http://www.w3.org/TR/2001/REC-SVG-20010904/DTD/svg10.dtd">
<svg version="1.0" xmlns="http://www.w3.org/2000/svg"
 width="512.000000pt" height="512.000000pt" viewBox="0 0 512.000000 512.000000"
 preserveAspectRatio="xMidYMid meet">

<g transform="translate(0.000000,512.000000) scale(0.100000,-0.100000)"
fill="#000000" stroke="none">
<path d="M102 4050 c-65 -40 -66 -125 -3 -167 l34 -23 2426 0 c2356 0 2427 1
2457 19 66 40 68 125 5 168 l-34 23 -2426 0 c-2407 0 -2426 0 -2459 -20z"/>
<path d="M101 2646 c-28 -16 -50 -52 -51 -84 0 -33 28 -78 57 -91 34 -16 4872
-16 4906 0 28 13 57 58 57 89 0 31 -29 76 -57 89 -17 8 -728 11 -2456 11
-1999 -1 -2436 -3 -2456 -14z"/>
<path d="M102 1240 c-65 -40 -66 -125 -3 -167 l34 -23 2426 0 c2407 0 2426 0
2459 20 65 40 66 125 3 167 l-34 23 -2426 0 c-2407 0 -2426 0 -2459 -20z"/>
</g>
</svg>
