<?xml version="1.0" standalone="no"?>
<!DOCTYPE svg PUBLIC "-//W3C//DTD SVG 20010904//EN"
 "http://www.w3.org/TR/2001/REC-SVG-20010904/DTD/svg10.dtd">
<svg version="1.0" xmlns="http://www.w3.org/2000/svg"
 width="4000.000000pt" height="2216.000000pt" viewBox="0 0 4000.000000 2216.000000"
 preserveAspectRatio="xMidYMid meet">

<g transform="translate(0.000000,2216.000000) scale(0.100000,-0.100000)"
fill="#000000" stroke="none">
<path d="M17592 16883 c-6 -21 -14 -56 -17 -78 -4 -22 -35 -110 -69 -195 -35
-85 -78 -202 -95 -260 -38 -120 -65 -177 -115 -243 -20 -26 -36 -51 -36 -55 0
-11 -58 -64 -93 -86 -15 -9 -25 -21 -23 -25 3 -4 -5 -6 -18 -4 -17 4 -29 -3
-45 -26 -26 -36 -18 -40 19 -8 14 12 5 1 -21 -25 -26 -27 -45 -48 -41 -48 3 0
-10 -15 -30 -32 -42 -39 -158 -218 -169 -263 -4 -16 -11 -41 -14 -55 -5 -17 4
-10 29 25 20 28 52 72 72 100 20 27 37 60 38 74 0 13 12 38 26 54 82 97 121
141 192 214 44 46 84 80 89 77 5 -3 6 1 4 9 -3 7 5 25 19 40 13 14 21 28 19
31 -3 3 1 8 10 12 9 3 14 11 11 18 -3 7 2 18 10 25 7 6 24 37 36 67 17 40 25
52 32 42 6 -9 7 -6 3 9 -5 20 40 183 51 183 3 0 2 -9 -1 -21 -4 -12 -8 -31 -9
-42 -2 -12 -10 -37 -20 -54 -9 -18 -12 -33 -8 -33 11 0 82 143 86 173 8 56 19
85 31 80 14 -5 39 62 30 78 -3 4 1 9 8 12 10 4 11 -11 5 -71 -5 -42 -10 -86
-12 -98 -3 -13 0 -24 6 -26 13 -5 12 -102 -3 -165 -16 -71 -28 -255 -18 -281
5 -13 5 -21 0 -18 -5 3 -11 -1 -15 -9 -3 -8 -1 -15 4 -15 6 0 10 -11 10 -25 0
-14 -5 -25 -10 -25 -6 0 -6 -6 1 -18 9 -14 1 -36 -43 -117 -30 -55 -66 -126
-82 -157 -15 -32 -44 -71 -64 -88 -53 -44 -438 -236 -492 -245 -25 -4 -56 -16
-69 -27 -14 -10 -27 -14 -30 -9 -9 14 -44 18 -60 6 -50 -35 -156 -153 -208
-230 -33 -49 -91 -120 -129 -157 -70 -68 -141 -158 -124 -158 5 0 29 26 54 58
51 65 156 171 156 157 0 -6 -7 -23 -15 -40 -14 -27 -12 -27 20 9 44 50 44 36
0 -33 -40 -63 -38 -80 5 -30 16 19 29 29 30 23 0 -5 -9 -20 -20 -31 -10 -12
-35 -45 -54 -75 -34 -53 -80 -101 -126 -131 -17 -12 -46 -17 -96 -17 -64 0
-81 -4 -141 -36 -90 -47 -108 -65 -155 -159 -64 -127 -117 -203 -167 -241 -25
-20 -67 -59 -93 -88 -25 -29 -78 -74 -117 -100 -40 -26 -98 -72 -130 -101 -32
-30 -88 -71 -124 -92 -86 -49 -156 -104 -157 -123 0 -8 -7 -28 -15 -44 -45
-85 -99 -238 -106 -296 -13 -111 -29 -191 -51 -249 -49 -132 -54 -194 -29
-351 6 -36 15 -103 20 -150 18 -156 45 -260 94 -370 14 -30 36 -91 50 -135 53
-167 73 -197 237 -355 117 -113 151 -152 156 -178 4 -19 17 -40 31 -50 14 -9
58 -47 98 -83 44 -40 105 -82 156 -108 56 -28 110 -66 161 -114 73 -68 132
-104 288 -176 25 -12 65 -42 90 -67 43 -45 101 -77 158 -90 15 -3 5 5 -23 19
-48 23 -99 67 -78 67 6 0 16 -7 23 -15 19 -23 31 -18 26 10 -5 26 10 76 39
139 16 32 17 33 77 30 45 -2 68 -8 87 -24 14 -11 54 -34 89 -51 70 -33 73 -38
92 -151 15 -93 33 -101 68 -34 21 40 22 47 11 85 -11 36 -10 43 6 61 27 30 48
25 144 -30 47 -27 124 -63 171 -81 91 -34 194 -98 135 -84 -69 16 -143 22
-195 15 -30 -4 -82 -5 -115 -3 -65 3 -131 -19 -139 -47 -3 -11 -4 -11 -5 3 -1
24 -16 21 -29 -5 -6 -13 -11 -18 -11 -11 -1 7 -11 17 -23 24 -17 9 -20 9 -15
-4 4 -11 0 -13 -14 -10 -11 3 -22 9 -25 14 -3 5 -14 9 -25 9 -11 0 -17 5 -14
10 4 7 -3 8 -22 4 -15 -4 -25 -3 -20 2 8 8 -92 38 -101 29 -3 -3 1 -5 9 -5 17
0 244 -109 454 -218 65 -34 116 -53 145 -55 40 -4 86 -17 111 -33 5 -3 9 -3 9
1 0 12 -67 45 -92 45 -16 0 -28 5 -28 11 0 6 8 8 18 5 14 -5 13 -3 -3 9 -11 9
-30 25 -43 35 -12 11 -26 20 -30 20 -5 0 -19 11 -32 25 -13 14 -28 25 -34 25
-24 0 -40 20 -42 55 l-3 37 47 -6 c150 -18 144 -16 213 -72 37 -29 90 -80 118
-112 62 -71 117 -105 131 -82 6 8 8 21 5 28 -6 16 15 63 26 56 4 -2 6 -11 3
-18 -5 -14 0 -15 113 -32 40 -6 115 11 216 49 34 12 34 11 74 -83 33 -80 77
-144 117 -171 17 -12 23 -18 13 -15 -11 3 -31 9 -45 12 -15 4 -87 26 -160 50
-74 24 -157 46 -185 49 -154 14 -178 14 -172 5 8 -14 -7 -13 -57 4 -24 8 -57
17 -75 21 -18 3 -43 15 -57 26 -16 13 -24 15 -21 7 8 -20 52 -44 115 -62 56
-16 92 -19 215 -16 46 1 92 -6 135 -19 36 -12 72 -21 81 -21 9 0 22 -6 29 -14
18 -23 187 -75 291 -90 52 -8 153 -19 224 -25 222 -20 330 -33 341 -42 16 -13
194 -13 227 0 16 6 44 11 63 11 21 0 33 4 29 10 -3 6 -21 10 -39 10 -18 0 -40
6 -50 13 -16 12 -16 14 6 24 103 52 182 58 235 17 28 -21 33 -32 31 -56 -3
-30 -2 -31 57 -44 63 -13 135 -18 135 -9 0 3 -7 34 -16 68 -11 45 -26 74 -51
101 -23 24 -32 40 -25 45 13 8 34 61 24 61 -4 0 -8 19 -9 43 -6 159 -39 303
-78 343 -22 22 -29 24 -36 13 -7 -11 -9 -10 -9 4 0 10 -4 15 -10 12 -5 -3 -16
-3 -22 2 -7 4 -17 8 -23 9 -5 1 -53 14 -107 28 -112 30 -180 33 -234 9 l-39
-18 125 -6 c150 -8 217 -29 272 -88 45 -48 56 -85 37 -120 -17 -32 -131 -90
-177 -91 -18 0 -69 17 -115 39 -45 21 -102 47 -125 57 -49 20 -62 43 -62 106
0 74 -29 160 -65 193 -20 18 -40 50 -50 80 -28 89 -60 160 -75 172 -21 16 -22
11 -5 -23 21 -43 40 -183 27 -196 -7 -7 -31 -4 -79 11 -102 31 -152 40 -213
41 -100 0 -123 41 -75 136 37 75 62 85 176 73 52 -6 102 -15 112 -21 25 -12
30 -6 18 23 -12 34 -98 59 -220 66 -166 8 -327 77 -379 162 -57 92 -217 162
-397 175 -48 4 -94 16 -175 48 -41 17 -77 32 -79 34 -2 2 26 17 62 33 161 72
218 183 147 287 -43 62 -64 71 -255 114 -49 12 -117 29 -150 40 -33 10 -101
24 -151 29 -144 17 -252 62 -384 160 -53 39 -73 61 -102 117 -64 122 -119 282
-133 384 -7 52 -12 96 -11 97 1 2 27 -13 57 -32 134 -84 118 -80 289 -80 188
-1 228 -8 294 -50 28 -18 73 -42 100 -54 51 -22 135 -28 153 -10 17 17 86 13
123 -8 19 -11 53 -31 75 -43 48 -28 145 -126 145 -147 0 -10 -10 -6 -30 13
-39 37 -110 54 -236 54 -88 1 -109 -3 -163 -26 -70 -31 -69 -44 4 -64 32 -9
68 -10 123 -5 75 8 151 9 159 1 2 -2 5 -13 8 -25 3 -17 -1 -21 -21 -21 -28 0
-33 17 -6 22 14 3 13 5 -6 10 -12 3 -20 2 -16 -3 3 -5 -19 -9 -49 -9 -39 0
-59 -5 -68 -17 -13 -15 -11 -16 14 -9 36 9 142 -10 176 -32 37 -24 62 -54 59
-70 -2 -8 -15 -24 -30 -35 -34 -25 -124 -29 -139 -6 -8 12 -11 11 -19 -3 -6
-9 -17 -15 -25 -12 -8 4 -15 1 -15 -5 0 -16 -80 -2 -104 18 -16 13 -18 13 -11
1 15 -28 38 -50 46 -44 5 2 41 -7 82 -21 79 -27 91 -29 83 -17 -2 4 11 6 31 4
25 -3 34 -1 29 7 -17 27 26 7 62 -29 27 -28 48 -40 68 -40 16 -1 47 -8 69 -16
22 -8 58 -17 79 -20 22 -4 71 -21 110 -39 39 -18 101 -42 138 -54 98 -31 210
-86 239 -118 30 -33 69 -99 69 -116 0 -8 -3 -7 -9 2 -7 11 -28 13 -105 7 -92
-6 -96 -6 -107 16 -6 13 -36 53 -66 90 -59 72 -104 98 -173 98 -35 0 -43 -5
-70 -42 -16 -22 -30 -50 -30 -62 0 -16 4 -13 17 13 9 19 19 29 21 22 2 -6 9
-8 14 -4 6 3 25 7 42 9 42 3 122 -55 131 -96 4 -17 11 -30 16 -30 6 0 6 8 -1
19 -5 11 -10 28 -10 38 0 10 10 -2 23 -27 12 -25 28 -49 35 -53 6 -4 12 -15
12 -22 0 -8 5 -15 10 -15 6 0 10 -5 10 -11 0 -6 11 -34 25 -62 14 -28 24 -56
21 -64 -3 -7 1 -13 9 -13 8 0 15 -4 15 -8 0 -15 143 -177 179 -203 20 -15 54
-32 75 -39 81 -26 212 7 249 64 27 40 25 55 -32 236 l-11 35 5 -42 c3 -24 12
-63 20 -87 14 -42 14 -45 -11 -90 -33 -59 -71 -85 -132 -93 -63 -7 -127 20
-181 77 -33 35 -38 47 -36 78 2 32 8 64 15 82 1 3 2 8 1 13 -3 19 121 39 146
24 5 -4 36 -1 67 5 42 9 56 17 56 29 0 36 105 48 195 23 48 -14 95 -47 95 -66
0 -10 7 -18 15 -18 8 0 32 -9 52 -20 21 -11 44 -20 51 -20 7 0 11 -3 9 -7 -3
-5 6 -9 20 -9 35 -3 41 -13 18 -30 -77 -56 -136 -107 -150 -128 -15 -23 -15
-30 -1 -79 37 -129 201 -280 311 -288 22 -1 48 -7 58 -12 30 -14 85 35 98 89
7 25 15 41 18 35 4 -6 12 -7 21 -1 24 15 48 12 53 -7 9 -43 18 277 15 552 l-3
300 -27 58 c-15 31 -52 90 -82 131 -31 40 -56 81 -56 90 0 9 -4 16 -9 16 -5 0
-16 6 -23 13 -7 7 -29 25 -48 40 -42 31 -46 63 -14 99 48 54 74 131 74 219 0
52 -27 149 -47 169 -14 13 -15 13 -8 -5 16 -44 34 -172 29 -210 -12 -85 -23
-104 -74 -130 -27 -14 -70 -29 -96 -35 -43 -10 -49 -9 -72 12 -14 13 -40 55
-58 95 -29 61 -34 82 -34 147 0 63 5 87 31 144 21 47 39 74 61 86 23 14 32 16
38 6 5 -8 20 -10 49 -5 34 6 41 4 41 -9 0 -9 7 -16 15 -16 39 0 -8 55 -72 85
-18 9 -33 19 -33 24 0 4 -15 7 -32 7 -31 -1 -33 1 -32 35 l1 35 -38 -10 c-35
-9 -41 -7 -96 30 -48 33 -64 53 -95 113 -33 62 -38 82 -38 139 0 113 38 151
138 139 45 -6 126 4 138 16 13 13 -38 65 -80 81 -40 15 -48 24 -81 91 -31 63
-36 82 -33 132 3 66 10 72 114 99 76 20 133 5 189 -50 39 -38 43 -47 54 -121
7 -44 19 -100 27 -125 13 -39 57 -116 76 -130 4 -3 15 -23 25 -45 29 -64 51
-91 109 -136 101 -77 148 -212 105 -300 -35 -72 -48 -91 -77 -114 l-28 -23 22
-93 c12 -52 22 -114 22 -139 l0 -45 20 33 c17 28 26 54 29 85 1 9 58 69 65 68
7 -1 16 0 31 4 6 1 15 3 21 3 7 1 24 32 39 70 66 163 70 217 25 289 -48 75
-38 132 37 217 30 34 52 49 38 26 -13 -21 18 -9 73 29 31 21 73 58 92 82 84
107 225 249 296 298 55 39 114 91 114 102 0 4 -20 33 -45 65 -25 32 -57 82
-72 111 -22 47 -25 62 -21 128 l5 74 -54 -52 c-64 -61 -88 -76 -125 -77 -33 0
-34 4 -7 59 11 24 18 45 16 47 -2 3 -27 0 -55 -6 -44 -10 -55 -9 -90 9 -100
51 -157 132 -157 222 0 70 18 105 67 130 33 17 44 18 81 8 67 -18 163 -94 194
-154 9 -17 18 -25 21 -17 2 7 -6 29 -18 48 -23 40 -20 55 7 33 15 -12 16 -12
10 4 -5 14 -3 17 11 13 16 -5 61 19 51 27 -2 2 -26 19 -54 38 -81 54 -134 108
-169 173 -41 74 -49 107 -38 166 6 38 13 48 42 62 40 20 92 23 122 7 11 -6 22
-8 25 -5 3 3 -5 10 -18 15 -45 17 -149 112 -223 205 -71 88 -128 145 -212 212
-21 18 -52 43 -69 57 -80 65 -235 153 -339 192 -37 14 -84 34 -105 45 -20 11
-74 36 -120 55 -73 31 -94 35 -150 33 -62 -3 -66 -5 -69 -28 l-3 -25 16 23
c11 15 26 22 51 22 47 0 140 -34 178 -65 17 -14 55 -44 85 -66 48 -37 53 -44
47 -71 -5 -27 1 -38 69 -107 41 -43 75 -84 75 -91 0 -7 -20 7 -45 33 -24 26
-50 47 -57 47 -9 0 -8 -3 2 -10 8 -5 11 -10 6 -10 -4 0 2 -9 15 -21 l24 -20
-34 5 c-37 7 -74 33 -65 47 3 5 -2 12 -11 16 -10 3 -20 0 -25 -7 -6 -9 -33
-10 -115 -5 -99 7 -111 6 -156 -15 -37 -18 -46 -26 -38 -36 13 -16 -2 -26 -21
-13 -25 15 -40 10 -40 -15 0 -52 5 -54 94 -49 117 8 149 0 200 -50 33 -31 49
-57 62 -102 24 -78 25 -162 1 -198 -17 -26 -21 -27 -105 -27 -100 0 -157 20
-189 66 -19 28 -50 117 -74 213 -15 63 -34 38 -31 -41 4 -91 18 -140 67 -237
25 -49 45 -95 45 -104 0 -9 4 -18 9 -21 4 -3 14 -40 20 -83 7 -43 14 -88 17
-100 6 -32 -14 -29 -28 5 -23 53 -98 140 -143 166 -30 18 -66 29 -109 33 -55
5 -71 2 -121 -21 -69 -31 -85 -32 -115 -6 -13 11 -27 20 -31 20 -4 0 -21 12
-38 26 -36 30 -42 78 -13 110 32 35 79 99 85 116 10 29 -16 48 -82 59 -36 5
-68 12 -71 14 -4 3 -13 31 -20 64 -15 71 -4 112 35 129 13 6 31 22 40 35 11
18 29 27 60 31 25 4 46 13 49 22 5 13 16 15 57 9 58 -8 62 9 6 18 -36 6 -211
89 -237 112 -10 9 -29 12 -58 8 -54 -7 -55 -24 0 -21 50 4 58 -12 19 -35 -17
-10 -48 -35 -69 -57 -21 -22 -44 -40 -50 -40 -6 0 -16 -9 -22 -20 -6 -11 -32
-32 -58 -46 -26 -15 -49 -29 -51 -30 -2 -2 10 -15 27 -29 47 -40 92 -114 92
-152 0 -53 -25 -90 -97 -143 l-67 -48 -45 31 c-67 47 -91 74 -124 145 -26 56
-29 71 -23 120 6 53 32 141 49 170 5 7 3 12 -5 12 -16 0 -21 37 -7 45 5 4 9
15 9 26 0 13 4 18 12 13 6 -4 8 -3 5 3 -8 13 15 23 54 23 16 0 29 5 29 11 0
12 -78 2 -96 -12 -7 -6 -17 -24 -24 -42 -22 -56 -90 -152 -126 -175 -18 -12
-36 -22 -38 -22 -15 0 23 76 82 165 80 119 91 153 121 375 37 268 41 325 41
618 0 277 -1 292 -18 292 -13 0 -22 -12 -30 -37z m-5 -155 c-3 -7 -5 -2 -5 12
0 14 2 19 5 13 2 -7 2 -19 0 -25z m33 -37 c0 -5 -15 -14 -32 -20 l-33 -11 24
20 c25 21 41 26 41 11z m-120 -231 c0 -5 -5 -10 -11 -10 -5 0 -7 5 -4 10 3 6
8 10 11 10 2 0 4 -4 4 -10z m-20 -45 c0 -8 -4 -15 -10 -15 -5 0 -7 7 -4 15 4
8 8 15 10 15 2 0 4 -7 4 -15z m-545 -769 c-15 -20 -29 -36 -32 -36 -6 0 18 43
35 63 27 31 25 9 -3 -27z m2570 -109 c37 -26 101 -93 123 -129 9 -16 20 -28
24 -28 15 0 8 -38 -8 -44 -24 -9 -72 21 -138 88 -79 79 -117 136 -82 123 10
-4 13 -1 10 8 -7 18 31 9 71 -18z m-2179 -115 c3 -29 1 -32 -31 -38 -19 -3
-38 -11 -42 -17 -6 -10 14 -7 66 9 23 7 24 6 18 -42 -4 -36 -12 -54 -31 -69
-38 -30 -34 -50 5 -29 17 9 42 18 56 20 21 4 24 2 18 -16 -3 -11 -3 -20 0 -20
13 0 32 26 38 52 5 19 12 25 26 21 13 -3 17 -11 13 -25 -4 -18 -2 -20 21 -14
23 5 27 3 27 -14 0 -12 4 -19 9 -16 26 17 114 -121 136 -214 36 -155 1 -373
-71 -441 -36 -33 -135 -39 -190 -11 -52 26 -120 101 -144 158 -27 63 -50 155
-50 200 0 76 110 183 188 184 39 0 40 7 3 53 -25 33 -30 35 -48 22 -27 -19
-137 -55 -167 -55 -25 0 -76 42 -113 94 l-21 30 -11 -53 c-6 -28 -11 -59 -11
-67 0 -21 -33 -68 -84 -121 -31 -34 -47 -43 -73 -43 -35 0 -104 31 -169 75
-20 14 -41 25 -45 25 -5 0 -23 -23 -40 -51 -17 -27 -34 -48 -37 -45 -10 10 82
138 122 170 46 37 263 170 341 209 28 14 78 33 110 42 33 10 83 31 110 46 28
16 54 28 59 26 5 -2 10 -17 12 -35z m-566 -178 c0 -2 -7 -4 -15 -4 -8 0 -15 4
-15 10 0 5 7 7 15 4 8 -4 15 -8 15 -10z m2692 6 c26 0 53 -6 60 -12 8 -7 32
-23 54 -34 39 -22 43 -29 62 -113 17 -76 -21 -120 -93 -107 -72 14 -175 151
-175 235 0 40 2 43 23 37 12 -3 43 -6 69 -6z m-1372 -180 c0 -5 -4 -10 -10
-10 -5 0 -10 5 -10 10 0 6 5 10 10 10 6 0 10 -4 10 -10z m-57 -32 c42 -29 51
-39 65 -65 15 -27 16 -80 2 -88 -5 -3 -10 -35 -10 -70 0 -35 5 -67 10 -70 14
-9 13 -48 -2 -63 -14 -14 -67 -16 -101 -3 -62 24 -129 125 -157 237 -11 43
-11 58 0 85 19 49 37 59 103 59 45 0 67 -5 90 -22z m-1479 -63 c-9 -14 -19
-23 -22 -20 -5 4 26 45 35 45 2 0 -4 -11 -13 -25z m2757 -84 c57 -37 93 -77
108 -120 12 -38 15 -151 3 -151 -4 0 -35 23 -69 51 -81 66 -143 157 -143 210
0 36 2 39 28 39 15 0 48 -13 73 -29z m-2416 -10 c67 -36 107 -196 68 -271 -17
-33 -102 -100 -127 -100 -7 0 -47 23 -89 51 -85 55 -117 101 -117 164 0 57 56
141 114 169 37 18 106 12 151 -13z m1647 3 c50 -11 104 -83 134 -178 28 -92
27 -117 -7 -159 -25 -33 -81 -36 -137 -8 -49 25 -73 55 -102 124 -13 31 -27
57 -32 57 -4 0 -8 9 -8 20 0 11 5 20 11 20 6 0 8 14 5 36 -4 19 -1 44 5 55 12
23 67 50 89 44 8 -2 27 -7 42 -11z m-2067 -151 c-19 -31 -56 -66 -62 -59 -4 4
67 85 76 86 2 0 -4 -12 -14 -27z m1965 -127 c0 -6 -7 -2 -15 8 -8 11 -15 25
-15 30 0 6 7 2 15 -8 8 -11 15 -25 15 -30z m818 -60 c28 -29 59 -71 71 -94
l21 -41 -46 -21 c-53 -23 -55 -22 -118 44 -21 23 -35 32 -30 21 11 -28 17
-121 10 -151 -9 -35 -35 -30 -114 23 -80 54 -93 71 -103 133 -9 58 1 74 64
107 63 32 95 39 152 35 38 -3 51 -11 93 -56z m-2764 -26 c23 -12 55 -33 69
-48 68 -73 144 -275 118 -319 -9 -16 -10 -14 -11 12 0 29 -15 64 -23 55 -2 -3
1 -42 6 -88 11 -86 5 -108 -25 -97 -9 4 -22 19 -28 35 -13 31 -94 120 -109
120 -5 0 -16 17 -24 38 -16 41 -73 108 -80 95 -7 -13 9 -128 22 -151 15 -28
14 -72 -1 -72 -30 0 -98 143 -98 204 0 36 21 111 44 155 13 24 78 81 93 81 2
0 23 -9 47 -20z m693 -33 c30 -16 65 -66 109 -151 71 -136 92 -237 59 -283
-21 -29 -73 -55 -88 -43 -119 96 -155 134 -185 194 -26 53 -32 76 -32 131 0
126 61 194 137 152z m1743 -45 c0 -15 -2 -15 -10 -2 -13 20 -13 33 0 25 6 -3
10 -14 10 -23z m-2890 -145 c20 -63 9 -158 -24 -205 -42 -61 -84 -77 -164 -64
-36 6 -70 16 -76 22 -16 16 28 95 90 159 30 32 67 84 84 120 l30 63 24 -29
c12 -15 29 -45 36 -66z m1930 58 c7 -9 8 -15 2 -15 -5 0 -12 7 -16 15 -3 8 -4
15 -2 15 2 0 9 -7 16 -15z m-17 -35 c14 -16 37 -55 52 -85 27 -58 65 -215 65
-270 0 -17 5 -36 12 -43 6 -6 10 -13 7 -15 -2 -2 -57 -1 -122 2 -135 7 -125 1
-197 121 -38 64 -80 175 -80 213 0 34 40 86 73 96 18 5 62 10 99 10 62 1 68
-1 91 -29z m74 -58 c34 -77 23 -75 -14 3 -17 36 -26 62 -21 59 6 -4 21 -31 35
-62z m520 -19 c32 -21 73 -110 73 -157 -1 -76 -65 -179 -119 -191 -17 -4 -44
0 -64 9 -29 12 -43 28 -72 85 -41 83 -43 115 -11 179 48 95 120 123 193 75z
m-2756 -87 c-13 -13 -32 -27 -43 -30 -16 -3 -12 3 13 24 41 35 61 39 30 6z
m3953 4 c77 -29 158 -282 115 -361 -7 -14 -7 -24 -1 -32 15 -18 -10 -47 -39
-47 -46 0 -130 29 -166 56 -72 55 -116 227 -78 307 30 63 110 100 169 77z
m-3274 -110 c0 -5 -2 -10 -4 -10 -3 0 -8 5 -11 10 -3 6 -1 10 4 10 6 0 11 -4
11 -10z m2626 -127 c-10 -10 -19 5 -10 18 6 11 8 11 12 0 2 -7 1 -15 -2 -18z
m-3124 -10 c38 -23 64 -65 83 -138 27 -106 15 -217 -25 -230 -49 -15 -150 26
-201 82 -60 65 -79 105 -79 166 0 70 21 117 53 117 12 0 29 5 37 10 24 16 100
11 132 -7z m3424 -25 c41 -28 50 -40 61 -83 17 -67 16 -121 -2 -183 -18 -59
-44 -82 -96 -82 -48 0 -69 26 -103 128 -36 106 -34 157 5 210 39 53 68 55 135
10z m-2688 -22 c71 -37 96 -102 94 -245 -2 -110 -13 -129 -80 -138 -39 -5 -43
-3 -93 48 -58 59 -119 175 -119 226 0 51 21 84 65 104 48 22 96 24 133 5z
m-1252 -33 c11 -59 -3 -268 -20 -301 -13 -25 -23 -30 -78 -39 -35 -6 -65 -9
-67 -7 -2 2 6 24 18 49 15 32 21 65 21 112 0 74 4 84 38 102 16 9 22 21 22 47
0 76 53 106 66 37z m1348 -19 c3 -8 2 -12 -4 -9 -6 3 -10 10 -10 16 0 14 7 11
14 -7z m738 -106 c76 -67 118 -161 118 -269 0 -40 -3 -48 -22 -53 -79 -21
-151 9 -244 98 -68 67 -84 96 -84 154 0 48 38 114 70 124 53 15 100 0 162 -54z
m18 48 c0 -2 -7 -6 -15 -10 -8 -3 -15 -1 -15 4 0 6 7 10 15 10 8 0 15 -2 15
-4z m581 -61 c37 -20 77 -82 90 -143 18 -84 -17 -152 -114 -226 -36 -28 -37
-28 -64 -11 -57 36 -83 74 -118 170 -42 117 -31 203 29 223 37 13 141 5 177
-13z m-3015 -212 c31 -106 30 -136 -4 -184 -16 -24 -41 -55 -56 -68 -14 -13
-33 -46 -41 -72 -19 -55 -41 -79 -31 -33 4 16 15 81 26 144 10 63 30 144 44
179 14 36 26 71 26 78 0 33 20 8 36 -44z m2067 3 c4 -10 1 -13 -9 -9 -15 6
-19 23 -5 23 5 0 11 -7 14 -14z m-3 -35 c0 -5 11 -12 26 -15 34 -9 142 -119
183 -189 65 -111 63 -200 -5 -213 -19 -3 -46 -3 -60 0 -31 8 -104 56 -149 98
-16 15 -33 28 -36 28 -11 0 -46 35 -60 60 -18 32 -35 109 -31 137 4 29 58 83
82 83 10 0 22 5 25 10 8 12 25 13 25 1z m-507 -145 c33 -36 47 -54 47 -62 0
-4 13 -32 28 -63 16 -31 32 -70 35 -87 6 -30 5 -31 -29 -28 -98 7 -112 13
-129 56 -8 22 -18 61 -22 86 -5 40 -4 45 11 39 14 -6 17 -2 15 21 -5 68 7 78
44 38z m-959 -45 c68 -69 78 -102 69 -226 -7 -95 -24 -142 -55 -154 -36 -14
-175 16 -196 42 -6 7 -16 33 -23 57 -11 41 -9 51 14 110 14 36 30 84 36 108
12 54 56 122 79 122 10 0 44 -27 76 -59z m333 24 c59 -50 78 -107 77 -227 0
-88 -3 -100 -28 -136 -49 -71 -93 -78 -201 -28 l-55 25 0 113 c0 128 17 208
52 245 49 53 99 56 155 8z m-712 -21 c63 -22 68 -37 45 -146 -21 -98 -63 -198
-99 -235 -23 -24 -69 -30 -100 -13 -29 15 -45 90 -37 178 4 42 9 112 13 155 3
42 10 77 14 77 5 0 9 -4 9 -9 0 -9 50 -12 64 -3 5 3 1 9 -10 13 -33 14 58 -1
101 -17z m2558 -6 c16 -13 56 -48 87 -78 76 -74 90 -116 80 -235 -5 -50 -13
-102 -19 -117 -9 -25 -16 -28 -54 -28 -49 0 -102 32 -93 56 3 9 -7 19 -27 28
-40 16 -65 53 -69 99 -1 20 -6 33 -10 31 -18 -11 -7 57 12 76 47 47 142 0 174
-85 2 -5 6 -8 9 -5 10 9 -19 74 -44 102 -44 47 -123 63 -164 32 -16 -12 -20
-26 -19 -72 2 -55 9 -79 39 -132 18 -32 14 -34 -22 -14 -42 25 -81 84 -94 144
-12 58 -4 155 14 170 55 45 64 49 115 50 40 0 62 -6 85 -22z m-1746 -75 c-3
-10 -5 -4 -5 12 0 17 2 24 5 18 2 -7 2 -21 0 -30z m2190 -43 c-14 -11 -29 -20
-33 -20 -4 0 3 9 16 20 13 11 27 20 33 20 5 0 -2 -9 -16 -20z m172 -54 c72
-38 135 -141 162 -268 9 -42 8 -54 -11 -93 -29 -61 -72 -90 -131 -89 -85 1
-155 81 -204 230 -39 119 -31 167 34 211 40 27 107 31 150 9z m-2382 -208 c-2
-13 -4 -5 -4 17 -1 22 1 32 4 23 2 -10 2 -28 0 -40z m1940 -70 c-3 -7 -5 -2
-5 12 0 14 2 19 5 13 2 -7 2 -19 0 -25z m-2338 -83 c32 -16 115 -105 136 -144
7 -14 18 -45 24 -69 10 -35 9 -48 -4 -75 -18 -38 -76 -83 -161 -126 -79 -40
-104 -41 -104 -3 0 62 21 398 26 415 7 21 45 22 83 2z m536 -29 c11 -15 37
-57 58 -94 92 -162 104 -211 62 -260 -15 -18 -35 -32 -45 -32 -10 0 -36 24
-60 56 -23 30 -66 71 -95 90 -30 18 -65 49 -79 67 -93 121 -57 213 79 204 50
-3 62 -8 80 -31z m-1013 0 c20 -28 38 -96 37 -146 0 -19 -14 -82 -32 -140 -30
-97 -34 -105 -62 -113 -54 -15 -78 3 -115 90 -18 43 -35 99 -38 126 -4 42 0
54 33 105 59 91 73 102 119 102 31 -1 45 -6 58 -24z m2738 -48 c67 -32 153
-123 173 -182 21 -61 22 -116 3 -161 -13 -29 -21 -36 -55 -41 -22 -4 -48 -15
-57 -25 -34 -37 -108 -13 -176 58 -43 45 -118 201 -118 246 0 47 34 95 83 118
48 22 79 19 147 -13z m-2512 -3 c43 -36 73 -107 89 -215 l14 -94 -23 -18 c-30
-23 -87 -41 -118 -36 -16 2 -39 25 -72 73 -47 69 -48 71 -48 151 0 91 13 118
72 147 44 22 51 21 86 -8z m2633 -41 c8 -10 0 -8 -24 6 -20 12 -39 26 -42 30
-9 14 52 -19 66 -36z m87 -93 c7 -12 11 -25 9 -28 -3 -2 -11 9 -18 26 -7 16
-17 27 -21 25 -4 -3 -8 2 -8 11 0 8 -7 18 -15 21 -8 4 -12 10 -9 15 5 9 39
-28 62 -70z m330 -68 c42 -5 61 -14 96 -44 50 -44 71 -89 81 -175 9 -84 -6
-133 -55 -178 -54 -49 -79 -53 -126 -23 -58 36 -91 73 -117 131 -31 65 -59
177 -61 238 l-2 47 40 4 c76 7 91 7 144 0z m179 -115 c-3 -8 -6 -5 -6 6 -1 11
2 17 5 13 3 -3 4 -12 1 -19z m-3110 -20 c5 -7 9 -17 8 -23 -12 -76 -20 -96
-41 -110 -24 -15 -24 -15 -24 22 0 21 9 49 19 62 10 13 16 32 14 42 -6 21 10
25 24 7z m3130 -70 c-2 -13 -4 -3 -4 22 0 25 2 35 4 23 2 -13 2 -33 0 -45z
m459 -105 c11 -7 26 -23 32 -36 57 -109 56 -240 -3 -311 -21 -26 -27 -29 -47
-19 -13 7 -40 17 -60 24 -24 8 -43 24 -54 43 -8 17 -29 54 -45 81 -30 53 -37
106 -16 141 27 47 57 75 94 88 40 15 64 12 99 -11z m-3309 -45 c13 -12 37 -50
54 -84 23 -49 29 -75 29 -125 -1 -132 -28 -188 -90 -189 -27 0 -108 50 -154
96 -45 45 -56 83 -56 189 0 108 12 139 64 160 26 11 38 10 80 -5 27 -11 60
-29 73 -42z m-503 23 c16 -16 25 -34 22 -40 -9 -14 -42 -14 -67 -1 -21 12 -21
11 -21 -52 0 -38 14 -72 41 -98 13 -13 14 -13 7 5 -5 11 -11 29 -14 40 -2 11
-9 25 -14 32 -11 14 28 43 59 43 36 0 55 -40 60 -132 4 -64 1 -88 -10 -103
-13 -16 -17 -17 -31 -6 -9 8 -15 25 -14 40 3 22 -1 26 -25 27 -68 2 -159 155
-127 214 13 24 67 60 91 60 8 0 28 -13 43 -29z m1511 10 c27 -6 54 -16 59 -21
13 -13 1 -13 -43 0 -33 9 -33 9 -17 -13 31 -42 50 -82 56 -117 3 -19 12 -34
18 -32 16 3 15 -5 -4 -36 -70 -117 -266 -101 -377 30 -70 83 -60 163 24 195
40 15 208 11 284 -6z m155 -30 c0 -5 -11 -11 -25 -13 -13 -3 -22 -2 -20 3 3 4
-5 10 -17 12 -13 2 -4 5 20 6 23 0 42 -3 42 -8z m40 -1 c0 -5 -4 -10 -10 -10
-5 0 -10 5 -10 10 0 6 5 10 10 10 6 0 10 -4 10 -10z m-827 -27 c41 -20 135
-117 142 -145 4 -14 5 -44 3 -68 -3 -44 -3 -44 -54 -55 -28 -6 -61 -19 -74
-28 -48 -33 -74 -23 -118 46 -88 135 -114 231 -69 262 26 18 124 12 170 -12z
m2440 -240 c-7 -2 -19 -2 -25 0 -7 3 -2 5 12 5 14 0 19 -2 13 -5z m-270 -20
c31 -3 57 -10 57 -15 0 -6 -26 -7 -62 -4 -35 3 -76 7 -93 8 -16 0 -24 3 -17 5
6 3 9 9 6 15 -5 7 3 9 22 4 16 -3 55 -9 87 -13z m317 7 c13 -8 13 -10 -2 -10
-9 0 -20 5 -23 10 -8 13 5 13 25 0z m110 -75 c0 -10 -16 -4 -40 16 l-25 20 33
-16 c17 -8 32 -18 32 -20z m-3232 -29 c15 -8 54 -24 87 -35 75 -27 84 -36 101
-107 27 -116 16 -143 -67 -165 -64 -17 -89 -7 -158 60 -57 55 -61 63 -61 104
0 24 4 57 9 73 5 16 12 41 15 57 7 31 31 35 74 13z m2564 -23 c-15 -3 -22 -10
-18 -19 3 -8 1 -14 -4 -14 -6 0 -10 4 -10 10 0 5 -8 7 -17 4 -10 -3 -7 2 7 10
14 8 34 15 45 14 16 -1 16 -2 -3 -5z m-2202 -46 c0 -7 22 -24 48 -38 26 -15
79 -53 119 -84 62 -50 78 -69 113 -139 45 -92 46 -100 24 -155 -23 -58 -69
-78 -142 -61 -177 39 -251 123 -260 290 -4 82 -3 87 23 118 15 18 36 32 47 32
17 0 19 4 13 31 -5 22 -4 29 4 25 6 -4 11 -13 11 -19z m1145 -7 c85 -41 114
-104 80 -171 -23 -44 -71 -69 -131 -69 -63 0 -85 16 -152 108 -61 84 -73 107
-67 125 16 40 192 45 270 7z m580 -18 c28 -9 56 -15 63 -14 13 3 14 2 32 -78
7 -30 19 -70 28 -88 14 -30 13 -37 -1 -67 -9 -19 -34 -46 -55 -60 l-39 -26
-54 24 c-73 33 -155 101 -179 148 -23 44 -28 150 -7 167 29 24 127 22 212 -6z
m-1126 -28 c116 -12 155 -40 173 -126 8 -37 15 -53 18 -42 4 9 2 34 -4 55 -13
48 -5 56 32 33 36 -20 72 -81 72 -118 0 -36 -35 -103 -61 -116 -29 -16 -62 -8
-73 17 -10 20 -14 21 -121 16 -152 -8 -205 10 -240 80 -22 44 -20 139 4 168
24 29 77 50 115 43 17 -2 55 -7 85 -10z m2502 -43 c24 -16 60 -44 79 -61 35
-32 35 -33 35 -113 -1 -62 -6 -93 -22 -127 -12 -25 -23 -51 -25 -58 -6 -21
-65 25 -119 93 l-48 60 0 118 -1 117 28 0 c15 0 48 -13 73 -29z m-1748 -326
c81 -60 91 -76 89 -151 -1 -94 -9 -104 -88 -104 -71 0 -127 22 -177 69 -41 38
-57 73 -57 129 0 40 5 54 26 75 51 51 123 45 207 -18z m636 20 c29 -15 71 -88
71 -125 0 -11 -15 -30 -37 -45 -46 -31 -105 -33 -150 -6 -26 16 -33 29 -39 66
-8 57 8 92 51 111 40 17 70 17 104 -1z m-213 -320 c32 -20 74 -51 92 -70 27
-30 32 -42 32 -84 0 -28 -4 -53 -10 -56 -5 -3 -48 -11 -94 -17 -76 -10 -89
-10 -125 7 -49 21 -68 42 -113 120 -40 70 -36 81 42 103 89 25 105 30 111 31
3 1 32 -15 65 -34z m459 -51 c84 -10 121 -35 185 -129 56 -82 50 -129 -25
-175 -43 -27 -107 -24 -177 8 -59 26 -145 109 -153 147 -3 17 -10 43 -15 58
-11 36 4 81 33 95 12 7 38 10 57 7 19 -2 62 -7 95 -11z m-1090 -264 c-3 -5
-12 -10 -18 -10 -7 0 -6 4 3 10 19 12 23 12 15 0z m1777 -58 c20 -11 46 -22
59 -25 23 -4 23 -5 4 -12 -18 -6 -64 -65 -65 -83 -1 -15 -137 -113 -179 -129
-44 -17 -44 -17 -99 13 -44 23 -61 39 -79 74 -28 56 -29 104 -3 130 11 11 26
20 33 20 8 0 7 4 -3 10 -11 7 -7 9 15 5 17 -3 48 2 70 10 56 22 198 14 247
-13z"/>
<path d="M15816 13847 c-14 -11 -18 -25 -18 -66 1 -28 6 -60 12 -71 13 -24 65
-52 88 -48 12 2 4 10 -23 23 -48 24 -72 66 -59 104 12 34 56 56 84 41 12 -7
20 -7 20 -1 0 24 -78 38 -104 18z"/>
<path d="M15931 13788 c0 -20 4 -49 10 -65 7 -15 12 -48 13 -73 1 -34 5 -46
19 -48 10 -2 17 3 17 12 0 16 -25 98 -40 131 -5 11 -11 34 -13 50 -4 27 -4 26
-6 -7z"/>
<path d="M15357 13724 c-12 -12 -8 -24 7 -24 8 0 16 -6 19 -12 2 -7 8 -9 13
-5 4 4 -1 17 -12 28 -11 11 -23 16 -27 13z"/>
<path d="M15373 13646 c-28 -13 -29 -22 -3 -29 13 -3 21 1 26 15 7 25 4 26
-23 14z"/>
<path d="M15376 13592 c-4 -7 -16 -12 -27 -12 -23 0 -25 -18 -3 -27 19 -7 48
20 42 38 -3 10 -6 10 -12 1z"/>
<path d="M15690 12592 c0 -5 7 -13 16 -16 10 -4 14 -1 12 6 -5 15 -28 23 -28
10z"/>
<path d="M18047 12315 l-28 -35 25 12 c14 6 28 20 32 30 10 32 0 29 -29 -7z"/>
<path d="M15550 12231 c0 -6 5 -13 10 -16 6 -3 10 1 10 9 0 9 -4 16 -10 16 -5
0 -10 -4 -10 -9z"/>
<path d="M15400 11819 c0 -5 5 -7 10 -4 6 3 10 8 10 11 0 2 -4 4 -10 4 -5 0
-10 -5 -10 -11z"/>
<path d="M16762 11350 c0 -14 2 -19 5 -12 2 6 2 18 0 25 -3 6 -5 1 -5 -13z"/>
<path d="M16712 16893 c-23 -44 -3 -311 24 -320 8 -3 9 9 4 39 -7 38 -7 41 6
23 8 -10 14 -26 14 -35 0 -22 20 -40 43 -40 17 0 19 5 13 33 -5 28 -4 29 6 12
16 -27 34 -45 47 -45 6 0 2 10 -9 23 -41 46 -49 57 -64 85 -8 16 -28 43 -45
61 -31 33 -40 61 -21 61 6 0 10 -4 10 -9 0 -6 18 -31 41 -57 83 -96 122 -159
159 -253 21 -53 56 -141 78 -196 23 -55 46 -123 53 -150 18 -75 22 -84 27 -56
4 25 -20 124 -43 176 -8 17 -25 62 -38 100 -14 39 -36 95 -50 125 -13 30 -32
80 -42 110 -10 30 -30 71 -43 90 -43 58 -46 58 -13 -1 42 -76 39 -86 -6 -19
-20 30 -51 72 -70 93 -18 20 -33 43 -33 50 0 6 10 0 23 -14 54 -62 60 -53 17
26 -62 114 -70 123 -88 88z m45 -211 c18 -19 44 -83 41 -100 -3 -16 -78 121
-78 141 0 7 6 3 12 -8 7 -11 18 -26 25 -33z"/>
<path d="M16729 16560 c0 -3 -2 -81 -3 -175 -2 -148 -6 -184 -30 -279 -15 -61
-39 -134 -52 -164 -13 -31 -23 -57 -21 -59 2 -2 16 23 30 54 37 83 85 256 98
353 13 97 8 245 -9 262 -7 7 -12 10 -13 8z"/>
<path d="M16783 16508 c10 -28 12 -30 15 -11 3 21 29 39 41 27 3 -3 8 -47 11
-97 4 -71 8 -86 14 -64 5 15 5 61 1 102 l-7 75 -43 0 -44 0 12 -32z"/>
<path d="M17401 16224 c0 -11 3 -14 6 -6 3 7 2 16 -1 19 -3 4 -6 -2 -5 -13z"/>
<path d="M15272 16178 c-31 -19 -32 -22 -32 -89 0 -50 6 -81 20 -109 11 -22
20 -54 20 -73 0 -18 9 -63 21 -100 22 -71 67 -121 164 -182 26 -16 100 -64
165 -105 64 -41 173 -110 242 -153 132 -82 209 -143 273 -216 38 -41 39 -46
39 -112 -1 -62 -6 -79 -45 -155 -28 -55 -53 -91 -70 -99 -14 -8 -32 -22 -40
-31 -9 -12 4 -8 38 12 32 17 53 36 53 46 0 10 9 22 20 28 11 6 19 16 18 23 -4
19 33 102 40 90 4 -6 6 24 5 67 -2 73 -1 78 17 73 11 -3 20 -10 20 -16 0 -6 3
-8 6 -4 10 10 -55 96 -84 111 -15 8 -26 17 -24 20 6 16 0 26 -18 26 -11 0 -20
5 -20 11 0 5 5 7 12 3 7 -4 8 -3 4 4 -4 7 -12 12 -19 12 -6 0 -23 13 -37 28
-33 38 -348 256 -415 288 -16 8 -50 26 -75 40 -183 108 -250 174 -250 245 0
21 4 39 10 39 6 0 6 9 0 26 -15 38 -12 74 5 74 8 0 15 -6 15 -12 0 -9 3 -8 9
2 14 22 4 30 -38 30 -31 0 -40 4 -44 22 -4 12 -1 25 4 29 8 5 8 9 0 13 -17 11
-13 41 8 60 25 23 60 13 119 -32 26 -20 40 -27 32 -17 -13 16 -95 80 -125 97
-6 4 -25 -3 -43 -14z m558 -748 c14 -10 22 -21 19 -24 -2 -3 -18 6 -34 19 -35
29 -22 33 15 5z"/>
<path d="M15480 16059 c28 -26 77 -66 185 -153 39 -31 90 -73 114 -94 92 -77
163 -132 184 -143 19 -10 20 -10 7 3 -14 13 -115 99 -165 140 -111 90 -231
186 -248 198 -12 8 -40 27 -62 43 -27 20 -32 22 -15 6z"/>
<path d="M17703 16056 c-66 -31 -79 -50 -26 -40 21 4 48 11 61 15 32 12 107
11 162 -2 25 -6 77 -13 115 -16 124 -9 555 -13 555 -5 0 21 -102 32 -285 32
-156 0 -203 3 -233 16 -25 11 -78 17 -168 19 -120 4 -134 2 -181 -19z"/>
<path d="M17100 16013 c0 -17 5 -35 10 -38 13 -8 13 35 0 55 -7 11 -10 7 -10
-17z"/>
<path d="M18540 15882 c0 -30 31 -112 42 -112 6 0 7 8 4 17 -4 9 -14 39 -23
65 -16 51 -23 60 -23 30z"/>
<path d="M16595 15839 c-4 -6 -5 -12 -2 -15 2 -3 7 2 10 11 7 17 1 20 -8 4z"/>
<path d="M16549 15749 c-16 -34 -29 -63 -27 -65 2 -2 18 26 36 61 17 36 30 65
27 65 -3 0 -19 -27 -36 -61z"/>
<path d="M18660 15701 c0 -5 7 -12 16 -15 14 -5 15 -4 4 9 -14 17 -20 19 -20
6z"/>
<path d="M17760 15690 c0 -5 11 -10 25 -10 14 0 25 5 25 10 0 6 -11 10 -25 10
-14 0 -25 -4 -25 -10z"/>
<path d="M16505 15659 c-4 -6 -5 -12 -2 -15 2 -3 7 2 10 11 7 17 1 20 -8 4z"/>
<path d="M16472 15540 c0 -14 2 -19 5 -12 2 6 2 18 0 25 -3 6 -5 1 -5 -13z"/>
<path d="M17708 15523 c7 -3 16 -2 19 1 4 3 -2 6 -13 5 -11 0 -14 -3 -6 -6z"/>
<path d="M16250 15421 c51 -48 146 -111 166 -111 5 0 -11 12 -36 27 -25 14
-65 42 -89 62 -79 65 -97 75 -41 22z"/>
<path d="M18270 15368 c-14 -5 -49 -8 -78 -5 -30 2 -47 0 -40 -4 17 -11 129
-11 147 0 20 13 -1 20 -29 9z"/>
<path d="M20050 15001 c0 -6 11 -24 25 -39 45 -51 82 -117 74 -132 -7 -16 -27
-105 -34 -155 -3 -19 6 -50 22 -83 17 -36 24 -65 21 -88 l-4 -35 18 23 17 23
56 -29 c31 -16 71 -47 88 -68 16 -21 32 -37 33 -35 8 8 -40 135 -62 164 -14
18 -35 55 -46 81 -11 26 -24 49 -27 52 -14 12 -42 80 -59 146 -10 38 -30 87
-44 107 -27 40 -78 84 -78 68z m290 -551 c0 -15 -5 -12 -26 11 -19 22 -19 22
4 10 12 -6 22 -16 22 -21z"/>
<path d="M21691 14905 c-35 -90 -41 -117 -40 -178 0 -68 10 -163 25 -234 7
-35 -2 -41 -34 -24 -32 18 -111 31 -179 30 -66 0 -175 -18 -188 -30 -3 -4 14
-3 37 2 103 20 262 2 323 -36 17 -10 48 -33 70 -51 53 -42 195 -128 201 -121
3 2 -22 29 -55 59 -43 38 -63 65 -67 88 -7 31 -6 32 15 21 27 -15 26 -10 -2
32 -13 20 -30 71 -41 127 -23 124 -47 204 -56 190 -11 -17 -18 10 -11 38 5 18
16 -2 55 -90 89 -205 177 -341 264 -410 66 -53 77 -47 17 10 -122 115 -202
240 -262 405 -21 57 -26 89 -25 154 1 46 6 92 12 103 8 16 8 20 -4 20 -9 0
-29 -38 -55 -105z"/>
<path d="M18248 14963 c7 -3 16 -2 19 1 4 3 -2 6 -13 5 -11 0 -14 -3 -6 -6z"/>
<path d="M16398 14851 c-9 -11 -14 -22 -11 -25 4 -3 0 -6 -8 -7 -17 -1 -163
-169 -154 -177 11 -11 154 150 184 206 14 27 11 28 -11 3z"/>
<path d="M16135 14815 c3 -15 -5 -27 -30 -44 -41 -28 -39 -42 2 -16 38 25 47
36 51 60 2 15 1 17 -6 6 -8 -11 -11 -11 -16 0 -3 8 -4 5 -1 -6z"/>
<path d="M23427 14618 c-8 -13 -27 -45 -42 -73 -108 -194 -132 -234 -159 -266
-17 -20 -43 -56 -58 -80 -16 -24 -42 -62 -58 -84 -17 -22 -53 -71 -80 -110
-27 -38 -63 -86 -80 -105 -17 -19 -45 -54 -62 -78 -38 -55 -103 -102 -139
-102 -16 0 -45 9 -65 20 -46 26 -55 19 -18 -14 56 -49 79 -52 140 -23 41 21
74 50 146 135 51 60 113 145 137 188 112 201 431 627 431 576 0 -7 -35 -57
-77 -110 -90 -111 -113 -143 -113 -157 0 -5 8 2 17 15 10 14 39 48 66 75 27
28 70 78 94 113 34 47 51 62 69 62 13 0 24 -3 24 -7 0 -6 -32 -50 -157 -211
-40 -51 -78 -103 -84 -115 -9 -21 -9 -21 5 -3 8 10 30 35 48 55 19 20 64 74
100 121 37 47 81 101 97 121 l31 37 -27 11 c-26 10 -131 31 -160 31 -7 0 -19
-10 -26 -22z"/>
<path d="M21160 14456 c0 -9 202 -157 254 -187 62 -35 91 -57 85 -63 -2 -3
-36 -1 -74 4 -109 14 -368 12 -502 -5 -160 -20 -324 -62 -453 -117 -58 -25
-126 -53 -151 -62 -25 -10 -68 -35 -95 -56 -27 -22 -78 -59 -114 -84 -65 -44
-190 -168 -306 -301 -76 -88 -103 -155 -189 -471 -8 -29 -32 -101 -54 -160
-22 -60 -45 -131 -51 -159 -40 -170 -51 -205 -80 -260 -27 -51 -51 -125 -30
-95 9 13 11 13 20 0 8 -11 9 -7 4 14 -5 21 -4 27 5 22 7 -5 11 3 11 23 0 16 5
33 10 36 16 10 12 -207 -5 -305 -8 -47 -23 -110 -32 -140 -16 -49 -18 -105
-19 -525 -1 -371 -5 -504 -18 -630 -20 -183 -15 -258 34 -500 15 -77 34 -171
41 -210 13 -78 72 -231 126 -333 131 -243 178 -314 265 -403 55 -55 187 -177
223 -204 75 -56 325 -85 743 -85 275 0 298 1 395 24 116 28 155 41 247 84 65
30 101 40 215 63 77 16 243 70 318 103 41 19 74 26 117 26 61 0 72 3 178 51
35 16 67 29 72 29 5 0 21 10 37 23 40 33 217 132 283 158 30 12 59 26 64 31 6
4 20 8 32 8 23 0 78 21 179 70 63 30 182 70 211 70 29 0 136 72 217 147 44 40
118 98 166 130 99 65 197 153 258 233 24 30 47 60 52 66 5 6 19 29 30 50 12
21 48 81 81 133 33 51 60 95 60 96 0 2 -12 5 -27 7 -19 2 -37 17 -60 48 -18
25 -42 58 -54 73 -26 34 -20 63 21 111 33 37 102 66 155 66 18 0 49 -11 69
-25 l36 -25 19 43 c66 146 80 449 36 732 -32 200 -52 297 -76 358 -11 26 -19
50 -19 52 0 9 44 -19 94 -59 26 -22 66 -45 87 -52 21 -8 60 -27 86 -43 26 -17
49 -28 51 -26 6 6 -169 321 -193 348 -11 13 -17 18 -14 12 14 -23 99 -186 99
-190 0 -2 -35 33 -77 78 -111 116 -206 207 -218 206 -5 0 10 -17 34 -37 24
-20 77 -77 117 -127 41 -49 96 -117 124 -150 27 -33 50 -63 50 -68 0 -15 -97
44 -164 100 -58 48 -166 179 -308 376 -21 29 -77 93 -125 143 -49 50 -126 137
-173 193 -47 56 -103 116 -125 133 -22 18 -44 38 -48 45 -16 27 -54 55 -122
93 -140 77 -193 184 -161 321 27 116 101 304 158 400 69 116 86 170 24 74 -89
-136 -170 -328 -201 -475 -30 -141 23 -247 160 -325 28 -16 79 -57 114 -92 36
-35 68 -63 72 -63 11 0 182 -190 176 -197 -3 -3 -53 40 -109 96 -113 110 -153
141 -225 172 -85 37 -275 99 -300 99 -20 0 -24 4 -21 18 6 21 -5 30 -104 79
-51 26 -88 56 -154 126 -103 110 -138 158 -171 240 -48 118 -62 140 -191 315
-9 12 -22 20 -29 18 -7 -3 -21 6 -32 19 -10 14 -25 25 -32 25 -7 0 5 -19 27
-42 51 -54 125 -145 145 -178 9 -14 26 -52 39 -85 13 -33 37 -80 52 -104 15
-25 28 -51 28 -58 0 -7 27 -42 60 -79 91 -101 72 -100 -31 1 -113 111 -143
144 -181 198 -52 73 -230 247 -307 299 -114 78 -267 147 -364 165 -208 37
-204 36 -342 129 -71 48 -148 102 -171 121 -36 29 -64 42 -64 29z m660 -405
c0 -5 -9 -7 -20 -4 -11 3 -20 7 -20 9 0 2 9 4 20 4 11 0 20 -4 20 -9z m63 -15
c50 -21 187 -115 239 -163 25 -25 63 -57 85 -73 21 -16 85 -77 141 -135 111
-114 239 -223 304 -260 33 -19 88 -81 88 -100 0 -3 16 -29 36 -59 41 -63 125
-116 149 -96 16 13 117 9 178 -8 21 -6 83 -32 138 -58 116 -55 138 -79 258
-261 42 -65 103 -146 135 -181 61 -65 71 -92 18 -47 -16 14 -33 25 -36 25 -12
0 39 -62 60 -73 18 -10 105 -82 158 -132 6 -6 46 -39 89 -75 82 -68 149 -156
192 -253 13 -30 28 -58 33 -61 12 -7 33 -158 30 -211 -1 -22 1 -67 5 -100 5
-43 -2 -25 -22 61 -16 66 -36 137 -45 158 -18 43 -20 56 -8 56 9 0 25 -44 42
-115 9 -37 9 -35 5 17 -5 61 -49 182 -92 258 -45 79 -91 127 -241 252 -80 68
-163 141 -184 163 -21 22 -42 45 -48 50 -7 6 -25 23 -41 40 -16 16 -29 25 -29
19 0 -16 59 -104 69 -104 6 0 7 -7 4 -17 -4 -11 -3 -14 5 -9 8 4 10 2 6 -7 -8
-22 145 -169 231 -222 17 -10 43 -30 59 -44 27 -25 28 -25 17 -3 -17 32 -134
136 -253 225 -21 15 -38 33 -38 39 0 6 10 2 23 -9 12 -11 32 -26 45 -32 25
-14 172 -142 269 -237 48 -46 72 -80 103 -146 22 -47 40 -91 40 -97 0 -22 -15
-9 -32 27 -30 64 -106 141 -169 172 -33 16 -59 26 -59 24 0 -12 73 -114 113
-159 34 -37 58 -75 49 -75 -5 0 -22 17 -38 38 -42 55 -104 118 -104 105 0 -7
5 -15 10 -18 6 -3 10 -11 10 -17 0 -7 -12 0 -27 14 -16 14 -39 31 -53 38 -23
11 -22 9 8 -22 37 -39 41 -53 12 -45 -11 3 -18 1 -14 -4 9 -16 -25 -10 -66 11
-22 11 -40 16 -40 11 0 -5 5 -13 10 -16 6 -3 10 -15 10 -26 0 -10 4 -19 8 -19
4 0 16 -14 26 -32 21 -34 142 -158 155 -158 5 0 11 -10 14 -21 5 -18 0 -16
-31 13 -20 19 -45 41 -55 49 -10 8 -26 22 -35 33 -41 45 -64 66 -72 66 -6 0
-10 7 -10 16 0 11 -6 15 -19 11 -11 -3 -22 1 -25 9 -3 9 0 11 12 7 15 -6 15
-5 3 11 -14 17 -15 17 -28 0 -12 -17 -14 -17 -27 2 -8 10 -17 16 -21 13 -3 -4
36 -44 86 -90 51 -46 118 -108 148 -138 l56 -54 -35 7 c-19 4 -59 16 -88 27
-29 10 -63 19 -77 19 -13 0 -43 8 -67 18 -24 10 -72 25 -108 32 -81 16 -86 19
-157 81 -64 56 -119 90 -63 38 19 -17 51 -46 70 -64 19 -17 59 -59 87 -92 30
-35 80 -78 115 -99 230 -138 310 -212 332 -306 8 -34 2 -35 -43 -5 -107 70
-356 200 -373 195 -6 -2 24 -24 67 -47 77 -43 165 -101 151 -101 -12 0 -69 31
-116 64 -25 17 -58 36 -75 41 -16 6 -34 20 -40 32 -9 21 -49 43 -105 59 -23 6
-22 5 8 -26 41 -41 105 -134 126 -183 8 -20 18 -65 22 -100 8 -75 32 -134 83
-202 49 -65 101 -157 101 -179 0 -14 4 -15 20 -6 27 14 27 -6 0 -40 -18 -24
-20 -24 -20 -4 0 19 -39 108 -40 91 0 -4 -9 -3 -20 3 -38 20 -130 147 -184
256 -60 120 -88 151 -185 209 -35 20 -83 66 -77 72 3 3 15 -2 26 -12 11 -10
22 -16 25 -13 3 3 -22 28 -55 57 -51 45 -62 50 -80 41 -22 -12 -27 -24 -8 -18
16 6 43 -20 33 -30 -4 -4 -10 -1 -12 6 -3 6 -9 12 -15 12 -6 0 -6 -6 2 -15 8
-9 21 -13 36 -9 20 5 23 3 18 -10 -4 -11 2 -27 17 -44 51 -56 90 -113 115
-164 14 -29 30 -61 35 -72 6 -10 17 -36 25 -57 17 -50 94 -158 134 -189 16
-13 30 -29 30 -36 0 -7 5 -16 11 -20 8 -4 9 1 4 17 -6 20 -5 22 6 11 17 -16
18 -33 2 -49 -15 -16 -23 -16 -23 -1 0 6 -21 34 -47 62 -119 128 -149 168
-238 320 -55 94 -181 283 -211 317 -8 9 -11 19 -7 23 5 4 3 6 -3 4 -11 -3
-124 90 -124 103 0 13 91 -31 175 -86 44 -29 109 -71 145 -93 56 -35 104 -78
162 -142 8 -8 31 -43 52 -77 42 -71 54 -81 30 -25 -9 20 -18 44 -22 52 -3 8
-23 41 -45 72 -31 45 -63 73 -141 125 -136 90 -253 157 -300 174 -21 8 -49 25
-62 38 l-24 24 0 -24 c0 -35 28 -75 107 -154 69 -69 153 -189 283 -405 34 -58
94 -140 132 -182 74 -83 138 -180 138 -210 0 -10 -2 -18 -4 -18 -11 0 -83 72
-126 125 -57 72 -246 263 -275 277 -11 6 -3 -7 18 -28 21 -21 55 -75 76 -119
21 -45 60 -115 88 -156 28 -40 61 -94 74 -119 13 -25 26 -47 29 -50 3 -3 6
-10 7 -15 1 -6 5 -23 8 -38 l7 -28 -32 30 c-52 47 -141 105 -164 107 -19 1
-68 18 -87 29 -4 3 -10 1 -13 -4 -3 -5 9 -16 28 -25 18 -8 39 -22 46 -31 7 -8
17 -15 22 -15 6 0 5 7 -2 15 -23 27 -6 24 34 -6 22 -16 34 -29 26 -29 -7 0
-10 -3 -6 -7 4 -5 8 -6 9 -4 1 2 13 -1 25 -8 33 -17 22 -23 -17 -10 -21 7 -30
16 -27 25 3 8 4 14 2 14 -3 0 -12 3 -22 7 -10 4 -15 2 -11 -3 3 -5 -3 -10 -14
-10 -10 0 -19 4 -19 8 0 4 -7 8 -15 8 -8 0 -15 5 -15 10 0 6 -7 10 -15 10 -8
0 -15 5 -15 11 0 6 -9 8 -22 4 -19 -5 -20 -4 -8 5 12 10 12 11 -5 4 -11 -4
-30 -7 -43 -7 -13 1 -21 -4 -19 -11 2 -6 13 -10 23 -8 18 2 18 2 1 -12 -15
-12 -16 -14 -2 -20 8 -3 15 -13 15 -21 0 -9 5 -13 10 -10 6 3 10 -1 10 -10 0
-10 13 -34 29 -54 36 -45 81 -132 75 -143 -3 -4 0 -8 5 -8 6 0 11 -15 10 -32
0 -33 0 -33 -11 -8 -36 83 -60 123 -150 247 -75 103 -80 108 -101 116 -12 5
-8 -5 13 -32 18 -21 48 -66 68 -100 20 -34 58 -96 84 -139 49 -82 96 -222 73
-222 -6 0 -69 59 -138 130 -70 72 -132 130 -139 129 -10 0 -10 -2 0 -6 6 -2 9
-10 6 -15 -4 -6 -3 -8 3 -5 8 5 53 -71 53 -90 0 -14 -60 59 -80 95 -11 21 -19
30 -20 20 0 -25 20 -67 61 -123 42 -59 58 -97 60 -145 3 -72 1 -76 -43 -90
-24 -7 -66 -26 -94 -42 -62 -34 -71 -34 -101 -6 -27 25 -33 5 -6 -24 15 -17
15 -18 -5 -18 -28 0 -141 124 -181 199 -39 73 -105 141 -138 141 -29 0 -29
-10 3 -111 14 -46 27 -101 28 -123 4 -61 32 -155 61 -198 14 -21 25 -40 25
-43 0 -37 -213 177 -264 265 -34 60 -37 62 -33 30 7 -51 107 -211 180 -287 59
-61 40 -62 -22 -1 -51 50 -107 129 -139 195 -23 48 -34 40 -13 -9 10 -24 28
-72 41 -108 22 -62 64 -137 85 -152 20 -15 -6 -8 -33 9 -54 33 -85 69 -122
143 -21 41 -59 110 -83 153 -25 44 -60 116 -78 160 -18 45 -35 87 -39 92 -3 6
-12 30 -20 55 -15 52 -30 73 -30 45 0 -24 19 -87 54 -178 14 -37 21 -65 17
-62 -5 3 -11 0 -13 -6 -2 -6 -15 -11 -29 -11 -27 0 -35 -22 -17 -45 12 -15 34
-111 43 -188 10 -89 -10 -56 -25 40 -12 79 -34 142 -64 179 -9 11 -19 17 -22
13 -4 -4 -2 -13 5 -20 22 -27 48 -123 49 -182 1 -33 10 -94 21 -135 10 -41 18
-76 17 -78 -2 -1 -27 9 -57 22 -30 13 -77 26 -106 29 l-51 6 -20 -47 c-11 -26
-23 -64 -26 -84 -4 -23 -15 -42 -27 -49 -19 -9 -28 -4 -75 45 -30 31 -54 64
-54 74 0 11 -29 62 -63 113 -35 52 -86 132 -112 179 -27 47 -50 87 -51 89 -4
5 -110 -83 -149 -125 -66 -69 -76 -82 -85 -112 -11 -42 -3 -41 15 1 17 40 117
150 172 188 l41 29 63 -113 c34 -61 79 -142 101 -178 49 -83 46 -92 -58 -184
-145 -127 -154 -139 -155 -209 -1 -88 -28 -174 -61 -199 -15 -12 -31 -17 -35
-12 -5 4 -2 10 5 12 7 3 19 12 28 20 13 13 13 18 1 32 -8 9 -27 50 -42 91 -15
41 -35 89 -45 106 -22 39 -50 133 -50 169 0 14 -4 24 -9 21 -8 -5 -8 -175 0
-201 6 -21 -13 -91 -31 -112 -23 -29 -58 -29 -128 -3 -63 24 -186 27 -236 6
-28 -11 -38 -25 -55 -70 -12 -31 -21 -61 -21 -66 0 -4 -39 -31 -87 -59 -100
-57 -104 -55 -84 40 16 74 13 118 -10 155 -15 24 -28 34 -46 34 -14 0 -46 15
-70 33 l-44 32 3 95 3 95 -122 -122 c-119 -120 -146 -138 -179 -115 -26 17
-74 98 -89 148 -14 50 -14 56 4 96 28 62 31 86 21 153 -5 33 -14 107 -20 165
-5 58 -12 122 -14 143 -4 33 0 42 25 64 16 15 29 35 29 46 0 18 -5 19 -54 13
-32 -4 -89 -24 -136 -47 -46 -23 -86 -37 -91 -32 -5 5 9 29 31 54 29 35 66 59
145 99 58 29 105 56 105 61 0 15 -18 10 -80 -21 -61 -31 -86 -37 -75 -20 13
20 105 60 140 60 19 0 35 5 35 10 0 14 -133 13 -164 -1 -22 -10 -30 -8 -63 17
-21 15 -41 33 -45 38 -25 36 14 408 47 462 13 20 52 41 242 130 45 21 81 40
79 42 -3 2 -47 -6 -100 -17 -53 -12 -109 -21 -126 -21 -38 0 -99 25 -116 48
-28 36 -9 121 42 189 24 31 125 86 258 139 58 23 196 100 196 109 0 3 -24 -5
-52 -16 -29 -12 -77 -27 -107 -35 -53 -14 -179 -55 -213 -69 -16 -6 -18 0 -18
53 0 41 5 63 15 72 27 22 17 37 -30 44 -51 8 -52 12 -33 95 9 39 16 51 31 51
29 0 175 38 237 62 68 26 88 43 42 34 -18 -3 -75 -10 -125 -16 -51 -6 -107
-13 -124 -16 -25 -4 -33 -1 -33 10 0 18 56 66 77 66 49 0 122 34 173 80 30 28
72 60 93 72 38 22 48 38 23 38 -8 0 -24 11 -37 25 -13 13 -30 25 -36 25 -7 0
-13 6 -13 14 0 7 6 18 13 24 14 12 109 48 212 82 125 41 195 76 195 99 0 11
-6 23 -12 28 -7 4 -134 11 -283 15 -148 4 -332 10 -408 14 l-138 7 21 -38 c20
-35 20 -43 9 -83 -8 -30 -28 -60 -61 -93 -27 -27 -51 -49 -52 -49 -2 0 -7 11
-10 25 -4 14 -11 25 -16 25 -20 0 -50 65 -50 106 0 72 60 124 144 124 25 0 47
4 50 9 12 19 88 26 271 26 155 0 196 3 220 16 17 9 49 26 72 38 47 25 80 29
168 18 46 -6 64 -4 79 7 18 15 18 16 -7 58 -34 58 -63 82 -117 97 -93 25 -150
55 -150 78 0 30 17 33 167 31 l130 -1 66 37 c37 20 67 39 67 42 0 21 -28 46
-72 67 -69 33 -281 113 -335 127 -53 13 -62 28 -33 52 19 15 41 18 157 18 123
0 186 -8 361 -46 17 -3 22 0 22 14 0 26 -23 44 -117 92 -72 35 -83 44 -83 67
0 14 8 32 18 39 19 15 83 19 97 6 21 -19 133 -53 198 -60 37 -5 67 -6 67 -4 0
3 -15 26 -34 52 -19 26 -41 61 -49 76 -19 36 -44 65 -77 87 l-25 17 35 0 c19
0 54 2 77 6 37 5 48 1 110 -38 73 -47 169 -102 251 -143 55 -28 126 -33 155
-11 16 13 10 21 -78 102 -53 49 -122 106 -153 126 -91 59 -151 103 -152 109 0
6 37 -1 190 -36 84 -19 206 -80 322 -161 104 -74 183 -114 223 -114 85 0 117
40 122 150 1 41 8 109 14 151 17 106 5 158 -39 181 -60 29 -51 41 11 14z
m-546 -32 c-3 -3 -12 -4 -19 -1 -8 3 -5 6 6 6 11 1 17 -2 13 -5z m-53 -26 c-3
-9 -32 -13 -94 -14 -176 -2 -504 -32 -556 -50 -13 -5 -16 -4 -9 4 19 20 133
42 221 43 74 0 434 23 441 28 1 0 0 -5 -3 -11z m-696 -38 c18 -17 20 -25 11
-48 -47 -123 -176 -212 -243 -168 -15 9 -23 23 -21 33 2 10 7 35 10 55 5 32
17 46 76 93 80 62 127 72 167 35z m52 -44 c0 -3 -4 -8 -10 -11 -5 -3 -10 -1
-10 4 0 6 5 11 10 11 6 0 10 -2 10 -4z m454 -145 c21 -17 35 -31 31 -31 -7 0
-31 17 -85 61 -17 14 -19 17 -5 11 11 -6 37 -24 59 -41z m410 -16 c11 -8 18
-17 15 -19 -2 -3 -15 4 -29 14 -14 11 -20 20 -15 19 6 0 19 -6 29 -14z m365
-104 c-6 -18 -14 -30 -17 -27 -2 3 1 19 8 36 16 40 23 33 9 -9z m-223 -2 c3
-6 -5 -3 -20 6 -14 10 -26 19 -26 22 0 7 39 -17 46 -28z m-1615 -310 c33 -35
35 -46 15 -75 -8 -11 -23 -41 -32 -65 -26 -68 -40 -79 -96 -79 -33 0 -50 5
-54 14 -3 9 -12 12 -21 9 -13 -5 -15 0 -9 33 16 86 60 157 111 180 44 19 54
17 86 -17z m2794 -10 c46 -47 91 -74 100 -59 7 12 35 14 35 2 0 -4 -9 -13 -20
-20 -30 -18 -78 7 -130 69 -50 59 -40 65 15 8z m-2984 -57 c-12 -38 -21 -83
-21 -101 0 -17 -4 -31 -10 -31 -16 0 -12 51 11 120 12 36 23 71 26 79 2 8 6
11 9 8 3 -3 -4 -36 -15 -75z m249 52 c0 -8 -5 -12 -10 -9 -6 4 -8 11 -5 16 9
14 15 11 15 -7z m570 -205 c0 -10 -4 -19 -9 -19 -5 0 -8 11 -8 25 0 13 3 22 8
19 5 -3 9 -14 9 -25z m-686 -176 c-7 -35 -54 -154 -67 -171 -21 -27 -17 -1 6
45 14 27 33 72 42 101 19 56 29 70 19 25z m3677 -118 c83 -68 189 -173 189
-187 0 -13 -16 -2 -94 66 -116 102 -207 190 -219 211 -11 22 -18 27 124 -90z
m-3254 89 c-3 -3 -12 -4 -19 -1 -8 3 -5 6 6 6 11 1 17 -2 13 -5z m83 -124 c0
-5 -8 -10 -17 -10 -15 0 -16 2 -3 10 19 12 20 12 20 0z m60 0 c0 -5 -4 -10 -9
-10 -6 0 -13 5 -16 10 -3 6 1 10 9 10 9 0 16 -4 16 -10z m-340 -60 c0 -5 -5
-10 -11 -10 -5 0 -7 5 -4 10 3 6 8 10 11 10 2 0 4 -4 4 -10z m317 -147 c6 -17
-34 -37 -43 -21 -4 6 -3 8 4 4 6 -3 13 -2 17 4 3 5 1 10 -4 10 -6 0 -11 5 -11
11 0 14 32 7 37 -8z m-100 -59 c-3 -3 -12 -4 -19 -1 -8 3 -5 6 6 6 11 1 17 -2
13 -5z m-869 -82 c12 -39 39 -71 57 -69 19 2 15 -28 -5 -40 -18 -12 -22 -9
-46 26 -26 41 -45 121 -27 121 5 0 15 -17 21 -38z m118 -67 c-17 -25 -36 -33
-36 -15 0 16 44 62 48 50 2 -6 -3 -22 -12 -35z m504 -65 c0 -5 -12 -10 -26
-10 -14 0 -23 4 -19 10 3 6 15 10 26 10 10 0 19 -4 19 -10z m3759 -127 c69
-74 86 -96 65 -85 -20 11 -104 97 -104 107 0 12 14 3 39 -22z m129 -229 c-4
-3 -12 5 -18 18 -12 22 -12 22 6 6 10 -10 15 -20 12 -24z m-183 -14 c3 -6 -1
-7 -9 -4 -18 7 -21 14 -7 14 6 0 13 -4 16 -10z m-345 -69 c14 -15 41 -37 60
-51 43 -30 76 -60 67 -60 -23 0 -172 112 -181 136 -8 20 26 5 54 -25z m48 5
c34 -18 78 -64 69 -73 -4 -3 -7 -1 -7 5 0 7 -6 12 -14 12 -8 0 -16 3 -18 8 -1
4 -18 19 -36 35 -37 30 -35 34 6 13z m207 -86 c3 -6 -1 -7 -9 -4 -18 7 -21 14
-7 14 6 0 13 -4 16 -10z m-37 -72 c66 -49 99 -78 89 -78 -7 0 -49 28 -112 74
-57 43 -61 46 -47 46 7 0 39 -19 70 -42z m132 -108 c0 -5 -2 -10 -4 -10 -3 0
-8 5 -11 10 -3 6 -1 10 4 10 6 0 11 -4 11 -10z m-530 -192 c31 -52 31 -52 26
-18 -5 31 -3 29 21 -20 15 -30 35 -62 44 -70 10 -8 24 -37 32 -64 8 -28 22
-55 33 -60 22 -13 34 -27 34 -41 -1 -5 -7 -1 -15 9 -8 11 -15 16 -15 10 0 -5
-22 15 -49 43 -32 33 -67 89 -97 150 -26 54 -49 101 -51 106 -2 4 -2 7 1 7 2
0 19 -24 36 -52z m-3831 -180 c-1 -77 -4 -114 -9 -98 -15 45 -10 220 6 220 2
0 4 -55 3 -122z m231 77 c7 -9 8 -15 2 -15 -5 0 -12 7 -16 15 -3 8 -4 15 -2
15 2 0 9 -7 16 -15z m116 -60 c-26 -13 -53 -28 -59 -34 -6 -6 -15 -11 -21 -11
-5 0 4 11 20 25 24 21 27 27 14 35 -11 7 1 10 40 9 l55 -1 -49 -23z m3641
-106 c21 -13 40 -26 43 -29 3 -3 22 -19 43 -34 50 -38 41 -43 -21 -12 -55 28
-132 95 -132 115 0 9 4 8 15 -2 8 -8 31 -25 52 -38z m-140 -124 c9 -16 36 -56
60 -88 24 -32 43 -63 41 -69 -6 -17 -52 34 -110 120 -29 42 -67 96 -85 120
-18 24 -33 49 -33 55 1 16 108 -100 127 -138z m-3818 -30 c0 -11 -7 3 -15 30
-18 65 -17 93 2 35 7 -25 13 -54 13 -65z m4117 8 c-4 -4 -11 -1 -16 7 -16 25
-11 35 7 17 9 -9 13 -20 9 -24z m39 -55 c18 -41 18 -43 -2 -77 -12 -20 -65
-70 -119 -112 -55 -41 -109 -91 -121 -110 -13 -19 -26 -38 -30 -44 -5 -5 -26
-39 -47 -75 -22 -36 -57 -90 -79 -120 -34 -47 -38 -51 -32 -25 3 16 11 32 15
35 5 3 34 47 65 98 90 150 142 208 227 258 11 7 42 33 69 59 52 50 59 72 34
115 -16 29 -18 40 -7 40 5 0 16 -19 27 -42z m-125 2 c0 -5 -4 -10 -10 -10 -5
0 -10 5 -10 10 0 6 5 10 10 10 6 0 10 -4 10 -10z m300 -39 c0 -10 18 -44 41
-75 23 -32 39 -59 36 -62 -9 -10 -68 50 -82 83 -17 41 -20 87 -5 78 6 -3 10
-14 10 -24z m-360 -35 c0 -3 -4 -8 -10 -11 -5 -3 -10 -1 -10 4 0 6 5 11 10 11
6 0 10 -2 10 -4z m-157 -111 c-3 -9 -8 -14 -10 -11 -3 3 -2 9 2 15 9 16 15 13
8 -4z m387 -75 c0 -5 -8 -10 -17 -11 -14 0 -13 -2 5 -9 17 -7 22 -17 22 -45 0
-76 -135 -224 -204 -225 l-29 0 7 73 c4 39 8 80 7 89 0 9 22 39 49 67 35 36
59 52 91 59 60 13 69 14 69 2z m-180 -47 c-18 -20 -40 -53 -48 -72 -11 -26
-17 -31 -20 -19 -5 25 38 97 68 114 36 19 36 18 0 -23z m-1077 -153 c17 -20
23 -37 19 -52 l-5 -22 -10 22 c-6 12 -13 22 -18 22 -4 0 -12 14 -18 30 -13 38
0 38 32 0z m1026 23 c0 -5 -4 -17 -9 -28 -8 -18 -9 -17 -9 8 -1 15 4 27 9 27
6 0 10 -3 9 -7z m-1449 -108 c-14 -17 -30 -20 -30 -6 0 5 8 12 18 14 9 3 19 5
21 6 2 0 -2 -6 -9 -14z m464 0 c-4 -8 -2 -15 4 -15 5 0 12 -7 16 -15 8 -21 0
-19 -23 7 -20 20 -20 38 -1 38 5 0 7 -7 4 -15z m716 -70 c-7 -9 -15 -13 -19
-10 -3 3 1 10 9 15 21 14 24 12 10 -5z m-650 -56 c0 -6 -4 -7 -10 -4 -5 3 -10
11 -10 16 0 6 5 7 10 4 6 -3 10 -11 10 -16z m-41 -46 c12 -42 6 -58 -7 -22
-21 54 -24 72 -13 65 5 -4 15 -23 20 -43z m46 -73 c3 -5 1 -10 -4 -10 -6 0
-11 5 -11 10 0 6 2 10 4 10 3 0 8 -4 11 -10z m-538 -72 c-3 -7 -5 -2 -5 12 0
14 2 19 5 13 2 -7 2 -19 0 -25z m188 22 c3 -5 1 -10 -4 -10 -6 0 -11 5 -11 10
0 6 2 10 4 10 3 0 8 -4 11 -10z m616 0 c45 -24 -2 -108 -79 -142 -40 -18 -49
-19 -83 -8 -30 10 -39 18 -39 36 0 43 18 69 61 91 75 36 105 41 140 23z m-931
-96 c0 -2 -16 -4 -36 -4 -19 0 -33 4 -30 8 5 8 66 4 66 -4z m585 -2 c-3 -3
-11 0 -18 7 -9 10 -8 11 6 5 10 -3 15 -9 12 -12z m-90 -32 c10 -11 16 -20 13
-20 -3 0 -13 9 -23 20 -10 11 -16 20 -13 20 3 0 13 -9 23 -20z m-624 -27 c-8
-15 -10 -15 -11 -2 0 17 10 32 18 25 2 -3 -1 -13 -7 -23z m1059 22 c0 -12 -67
-45 -90 -45 -20 1 -15 5 25 25 50 25 65 29 65 20z m-310 -85 c0 -5 -2 -10 -4
-10 -3 0 -8 5 -11 10 -3 6 -1 10 4 10 6 0 11 -4 11 -10z m-482 -56 c3 -38 -1
-45 -35 -73 -21 -17 -67 -40 -102 -51 -64 -20 -105 -26 -64 -10 13 5 21 17 20
28 -1 17 -5 18 -25 11 -14 -5 -27 -8 -29 -6 -6 7 116 127 140 137 12 5 38 8
57 7 33 -2 35 -4 38 -43z m-1799 -38 c-34 -39 -44 -31 -12 9 15 19 29 31 31
26 2 -5 -7 -21 -19 -35z m-44 -44 c-6 -4 -18 -19 -28 -34 -10 -16 -22 -28 -28
-28 -5 0 2 16 17 35 14 19 31 35 38 35 7 0 7 -3 1 -8z m925 -20 c0 -15 -2 -15
-10 -2 -13 20 -13 33 0 25 6 -3 10 -14 10 -23z m-995 -71 c-3 -6 -11 -11 -17
-11 -6 0 -6 6 2 15 14 17 26 13 15 -4z m1202 -63 c-2 -13 -4 -5 -4 17 -1 22 1
32 4 23 2 -10 2 -28 0 -40z m-220 20 c-3 -8 -6 -5 -6 6 -1 11 2 17 5 13 3 -3
4 -12 1 -19z m-688 -24 c12 -15 21 -31 21 -35 0 -19 -16 -7 -38 26 -26 41 -13
47 17 9z m322 -1 c-23 -9 7 -20 42 -14 l32 5 -30 7 c-23 5 -15 7 30 7 57 1 59
1 35 -13 -14 -8 -37 -14 -52 -15 -16 0 -37 -9 -48 -20 -11 -11 -26 -20 -32
-20 -8 1 -6 6 5 14 14 11 15 15 3 25 -7 6 -22 8 -32 4 -17 -6 -16 -7 2 -14 17
-7 17 -8 -3 -8 -16 -1 -23 -7 -23 -22 0 -13 4 -18 12 -13 7 4 8 3 4 -4 -12
-20 -26 -13 -26 11 0 37 43 77 80 76 12 0 12 -2 1 -6z m604 -52 c-3 -6 -11
-11 -16 -11 -5 0 -4 6 3 14 14 16 24 13 13 -3z m-698 -53 c-3 -8 -6 -5 -6 6
-1 11 2 17 5 13 3 -3 4 -12 1 -19z m-32 -70 c-34 -18 -37 -22 -21 -28 38 -13
-60 -46 -124 -41 -18 1 148 89 170 90 8 0 -3 -9 -25 -21z m290 -1 c36 -10 84
-14 120 -12 33 3 51 2 40 -1 -11 -3 -32 -10 -46 -15 -20 -8 -48 -5 -115 10
-49 12 -109 25 -134 30 l-45 10 60 -3 c33 -2 87 -10 120 -19z m-260 -17 c-3
-5 -12 -10 -18 -10 -7 0 -6 4 3 10 19 12 23 12 15 0z"/>
<path d="M21570 13230 c0 -5 7 -10 15 -10 8 0 15 5 15 10 0 6 -7 10 -15 10 -8
0 -15 -4 -15 -10z"/>
<path d="M22090 13229 c-124 -14 -245 -69 -525 -239 -60 -37 -137 -81 -170
-98 -63 -34 -195 -152 -236 -212 -125 -180 -265 -450 -327 -630 -23 -68 -26
-95 -32 -285 l-7 -210 -46 -140 c-82 -249 -107 -387 -107 -592 0 -157 4 -184
23 -179 7 1 9 1 5 -1 -15 -8 -8 -53 16 -106 17 -40 31 -57 55 -67 46 -19 49
-6 4 16 l-38 19 1 65 c5 299 15 513 25 555 6 28 13 61 14 75 4 40 4 41 15 35
6 -3 10 3 10 15 0 12 -4 18 -10 15 -6 -3 -10 4 -10 17 0 19 2 20 11 8 8 -11 9
-7 4 18 -4 20 -2 38 5 47 8 9 10 29 7 50 -4 24 -2 33 5 29 7 -4 8 -2 4 4 -11
18 33 190 50 196 10 4 13 13 9 26 -4 14 -2 20 8 20 20 0 30 -65 17 -110 -5
-19 -10 -44 -9 -55 0 -32 38 95 44 150 l5 50 -14 -35 c-19 -46 -19 -40 -1 50
18 94 41 170 99 333 49 136 53 157 35 185 -9 14 -8 25 4 48 15 30 15 30 -11
30 -15 0 -32 -7 -39 -15 -17 -22 -16 -36 2 -21 12 10 14 5 9 -41 -5 -59 -14
-79 -14 -34 0 28 -1 28 -15 9 -8 -10 -15 -28 -15 -39 -1 -31 -41 -112 -48 -95
-3 7 0 16 7 18 6 2 11 11 11 19 0 28 -30 -7 -31 -36 0 -24 -1 -25 -9 -5 -6 15
-3 34 9 60 49 104 61 127 55 104 -4 -14 -3 -22 1 -18 4 4 9 24 11 45 1 21 8
39 13 41 6 2 9 8 5 13 -3 5 0 8 6 7 13 -3 64 81 55 90 -3 3 -5 -1 -5 -8 0 -7
-3 -10 -7 -7 -3 4 1 15 9 24 8 10 28 43 44 73 65 125 191 286 210 267 3 -3 -7
-18 -22 -32 -27 -25 -28 -26 -4 -14 23 11 24 11 11 -5 -8 -9 -11 -19 -8 -22 3
-3 12 7 21 23 13 24 43 54 146 142 l25 22 -33 -16 c-68 -33 -38 -8 42 35 45
25 116 67 157 93 257 166 400 218 599 217 52 -1 54 -2 31 -14 -23 -13 -23 -14
-5 -19 17 -4 17 -5 -3 -6 -43 -2 -35 -21 9 -20 78 1 273 25 258 32 -26 12
-264 47 -305 46 -22 -1 -74 -5 -115 -10z m-720 -383 c0 -3 -4 -8 -10 -11 -5
-3 -10 -1 -10 4 0 6 5 11 10 11 6 0 10 -2 10 -4z m-58 -48 c-7 -7 -12 -8 -12
-2 0 14 12 26 19 19 2 -3 -1 -11 -7 -17z m-311 -421 c-10 -9 -11 -8 -5 6 3 10
9 15 12 12 3 -3 0 -11 -7 -18z m13 -191 c-8 -30 -23 -74 -34 -98 -11 -24 -18
-34 -14 -23 13 45 16 83 5 89 -6 4 -11 2 -11 -5 0 -7 -3 -10 -6 -6 -12 12 7
28 21 17 9 -8 15 0 25 35 18 64 31 56 14 -9z m-47 2 c-3 -8 -6 -5 -6 6 -1 11
2 17 5 13 3 -3 4 -12 1 -19z m-95 -146 c-8 -23 -22 2 -15 28 6 22 7 22 13 4 4
-10 5 -25 2 -32z m-19 -25 c3 -8 1 -20 -4 -28 -6 -10 -9 -7 -9 14 0 29 5 35
13 14z m12 -66 c-4 -17 -10 -31 -14 -31 -5 0 -3 15 3 34 13 42 21 39 11 -3z
m45 18 c0 -6 -4 -7 -10 -4 -5 3 -10 11 -10 16 0 6 5 7 10 4 6 -3 10 -11 10
-16z m9 -53 c-10 -33 -19 -65 -19 -73 0 -7 -4 -13 -9 -13 -10 0 12 88 31 127
19 38 18 21 -3 -41z m-36 17 c-4 -11 -3 -14 6 -9 9 6 9 3 -1 -13 -11 -18 -14
-19 -16 -6 -4 17 4 45 12 45 3 0 2 -7 -1 -17z m-26 -100 c-2 -16 -4 -5 -4 22
0 28 2 40 4 28 2 -13 2 -35 0 -50z m-96 -466 c-13 -13 -15 1 -4 30 7 17 8 17
11 -1 2 -10 -1 -23 -7 -29z m-14 -49 c-3 -8 -6 -5 -6 6 -1 11 2 17 5 13 3 -3
4 -12 1 -19z m-20 -90 c-3 -7 -5 -2 -5 12 0 14 2 19 5 13 2 -7 2 -19 0 -25z
m-17 -103 c0 -5 -5 -3 -10 5 -5 8 -10 20 -10 25 0 6 5 3 10 -5 5 -8 10 -19 10
-25z m-18 -171 c-6 -11 -11 -13 -16 -5 -4 6 -2 11 3 11 6 0 11 8 12 18 0 9 3
12 5 5 3 -7 1 -20 -4 -29z m-5 -216 c-3 -8 -6 -5 -6 6 -1 11 2 17 5 13 3 -3 4
-12 1 -19z"/>
<path d="M22662 13128 c1 -30 2 -31 11 -10 6 12 14 22 19 22 4 0 8 5 8 10 0 6
-9 10 -19 10 -16 0 -19 -7 -19 -32z"/>
<path d="M21084 12848 l-29 -33 33 29 c17 17 32 31 32 33 0 8 -8 1 -36 -29z"/>
<path d="M22035 12866 c-16 -7 -55 -38 -85 -68 -30 -30 -100 -87 -156 -126
-133 -94 -146 -109 -184 -200 -38 -93 -75 -137 -159 -188 -74 -44 -102 -80
-119 -148 -12 -48 -9 -77 4 -40 8 22 40 63 88 114 18 20 35 42 38 50 3 8 9 12
13 8 7 -7 -45 -80 -129 -183 -13 -16 -35 -48 -48 -71 -13 -23 -44 -73 -70
-111 -68 -101 -81 -202 -57 -418 l12 -100 -43 -135 c-24 -74 -49 -144 -56
-155 -21 -30 -17 -41 5 -14 10 14 36 70 56 124 20 55 50 128 66 163 16 34 29
68 29 75 0 7 4 17 9 22 5 6 26 40 45 77 20 37 51 82 70 100 18 18 38 49 44 68
14 45 15 217 2 225 -5 3 -10 -3 -10 -14 0 -11 -4 -23 -10 -26 -19 -12 -10 27
25 102 19 41 32 80 29 85 -6 10 17 35 54 56 19 10 22 10 22 -3 0 -8 -7 -15
-15 -15 -8 0 -15 -5 -15 -11 0 -20 102 46 139 90 57 68 66 89 51 116 -24 45
-6 86 71 153 39 34 78 62 88 62 11 0 24 -12 31 -31 8 -18 33 -43 59 -60 l46
-29 33 37 c41 47 41 35 -2 -41 -42 -74 -65 -99 -124 -137 -62 -39 -41 -36 33
4 50 28 66 44 98 98 20 35 46 89 58 119 11 30 39 84 63 120 87 133 109 215 64
238 -18 8 -121 34 -131 32 -1 -1 -15 -7 -32 -14z m126 -142 c-43 -61 -53 -62
-21 -4 11 19 27 52 37 72 17 35 18 36 21 13 2 -16 -10 -44 -37 -81z m-41 -74
c0 -5 -4 -10 -10 -10 -5 0 -10 5 -10 10 0 6 5 10 10 10 6 0 10 -4 10 -10z
m-470 -375 c-7 -8 -17 -15 -23 -15 -5 0 -2 9 8 20 21 23 35 19 15 -5z m-210
-199 c0 -3 -4 -8 -10 -11 -5 -3 -10 -1 -10 4 0 6 5 11 10 11 6 0 10 -2 10 -4z
m-57 -66 c-30 -43 -49 -54 -30 -17 15 28 39 56 50 57 5 0 -4 -18 -20 -40z"/>
<path d="M22802 12670 c0 -14 2 -19 5 -12 2 6 2 18 0 25 -3 6 -5 1 -5 -13z"/>
<path d="M21220 12660 c-9 -6 -10 -10 -3 -10 6 0 15 5 18 10 8 12 4 12 -15 0z"/>
<path d="M22513 12608 c-5 -7 -18 -31 -28 -53 -25 -50 -31 -55 -77 -55 -44 0
-45 6 -18 60 19 38 19 40 2 40 -11 0 -26 -16 -39 -42 -45 -93 -178 -252 -238
-284 -34 -18 -45 -34 -25 -34 6 0 35 14 64 30 51 29 89 38 163 39 35 1 22 -15
194 250 16 25 29 48 29 53 0 12 -16 10 -27 -4z m-198 -187 c3 -5 2 -12 -3 -15
-5 -3 -9 1 -9 9 0 17 3 19 12 6z m-45 -60 c-10 -20 -30 -29 -30 -14 0 10 33
44 37 39 3 -2 0 -14 -7 -25z"/>
<path d="M21160 12601 c0 -7 -4 -9 -10 -6 -6 4 -7 -1 -3 -11 6 -15 7 -15 15 1
6 9 7 19 4 22 -3 4 -6 1 -6 -6z"/>
<path d="M23420 12569 c0 -5 5 -7 10 -4 6 3 10 8 10 11 0 2 -4 4 -10 4 -5 0
-10 -5 -10 -11z"/>
<path d="M23061 12546 c15 -14 209 -106 223 -106 27 0 153 -88 213 -150 30
-30 71 -72 91 -92 66 -67 56 -40 -14 37 -75 84 -173 163 -249 199 -27 13 -93
44 -145 70 -52 25 -101 46 -109 46 -8 0 -12 -2 -10 -4z"/>
<path d="M23000 12528 c0 -25 48 -84 70 -85 31 -3 46 -18 79 -83 16 -33 38
-72 50 -88 12 -17 21 -35 21 -41 0 -6 6 -11 14 -11 8 0 26 -14 40 -32 14 -18
28 -30 31 -26 3 3 -18 33 -48 66 -29 33 -68 87 -85 120 -42 79 -82 118 -114
113 -4 0 -14 14 -22 33 -15 36 -36 56 -36 34z"/>
<path d="M22495 12510 c-3 -10 -25 -48 -49 -82 -24 -35 -50 -76 -59 -93 -8
-16 -42 -59 -75 -95 -33 -36 -75 -93 -92 -127 -21 -44 -41 -68 -63 -80 -57
-29 -317 -111 -317 -99 0 6 9 26 20 44 11 18 20 35 20 37 0 14 -25 0 -63 -35
-34 -31 -47 -53 -60 -100 -9 -33 -17 -72 -17 -88 0 -26 -5 -30 -50 -42 -31 -8
-60 -25 -76 -43 -33 -37 -43 -28 -14 13 23 33 23 44 -2 35 -19 -8 -51 -63 -43
-75 8 -13 -55 -99 -72 -100 -7 0 -10 -7 -7 -15 4 -8 1 -15 -5 -15 -17 0 -12
61 9 108 18 40 18 42 1 42 -26 0 -49 -61 -72 -190 -10 -58 -27 -122 -38 -143
-18 -36 -72 -107 -115 -152 -10 -11 -38 -50 -62 -86 -23 -36 -50 -71 -58 -78
-9 -8 -16 -17 -16 -22 0 -22 30 -5 75 42 28 28 88 76 135 106 46 31 102 73
125 93 22 21 54 45 71 53 36 18 73 63 127 152 20 33 41 66 46 74 5 7 19 15 32
16 33 4 101 40 127 68 20 22 82 134 82 150 0 19 79 90 134 121 152 83 154 85
190 178 6 15 38 61 71 103 83 105 163 246 181 318 7 31 -11 38 -21 7z m-1120
-1228 c-2 -2 -7 -4 -12 -4 -4 -1 -17 -14 -29 -29 -11 -16 -34 -39 -50 -51 -28
-22 -27 -21 6 20 19 24 39 50 44 57 6 7 18 13 28 12 9 -1 15 -3 13 -5z"/>
<path d="M22801 12422 c-3 -250 -51 -462 -142 -631 -116 -215 -252 -371 -424
-483 -145 -95 -179 -112 -295 -156 -58 -21 -136 -55 -175 -74 -38 -20 -119
-56 -180 -82 -79 -33 -124 -59 -159 -91 -27 -25 -61 -53 -75 -61 -14 -9 -38
-33 -52 -53 -29 -42 -200 -184 -269 -223 -25 -15 -81 -45 -125 -67 -44 -23
-71 -41 -60 -41 33 1 231 111 313 175 42 33 109 91 147 129 78 77 146 128 214
160 58 27 218 114 251 136 28 18 128 60 234 96 168 58 462 289 569 449 118
176 169 299 218 520 23 104 38 378 21 388 -6 5 -10 -26 -11 -91z"/>
<path d="M23380 12486 c0 -2 7 -7 16 -10 8 -3 12 -2 9 4 -6 10 -25 14 -25 6z"/>
<path d="M23182 12409 c9 -5 42 -51 72 -102 58 -96 106 -160 106 -141 0 6 -21
41 -47 77 -27 37 -64 92 -83 122 -19 30 -41 55 -50 55 -12 -1 -12 -2 2 -11z"/>
<path d="M23334 12292 c4 -7 13 -12 20 -12 7 0 41 -9 75 -21 80 -26 91 -18 14
11 -76 28 -118 37 -109 22z"/>
<path d="M22762 12230 c0 -14 2 -19 5 -12 2 6 2 18 0 25 -3 6 -5 1 -5 -13z"/>
<path d="M23230 12195 c0 -15 18 -40 24 -34 3 3 -1 14 -9 25 -8 10 -14 15 -15
9z"/>
<path d="M23339 12106 c27 -29 33 -32 25 -13 -2 7 -14 19 -27 26 -21 13 -21
12 2 -13z"/>
<path d="M23002 12094 c10 -10 20 -15 24 -12 3 4 -5 12 -18 18 -22 12 -22 12
-6 -6z"/>
<path d="M23042 12074 c4 -6 53 -39 108 -75 56 -35 131 -86 168 -113 l67 -49
-40 41 c-22 22 -87 69 -145 104 -58 35 -118 73 -135 84 -16 10 -26 14 -23 8z"/>
<path d="M23420 12038 c25 -24 38 -29 25 -9 -3 6 -16 16 -28 22 -20 11 -20 9
3 -13z"/>
<path d="M23474 11991 c20 -22 26 -25 26 -13 0 4 -10 13 -22 21 -23 14 -23 14
-4 -8z"/>
<path d="M22677 11978 c-8 -13 -36 -59 -62 -103 -55 -92 -80 -127 -88 -119 -3
3 -13 -13 -23 -35 -9 -22 -21 -38 -25 -36 -4 3 -14 -5 -22 -18 -21 -32 -81
-91 -124 -124 -21 -15 -49 -37 -63 -48 -33 -26 -160 -158 -160 -166 0 -4 -19
-19 -42 -35 -60 -41 -74 -54 -54 -54 8 0 21 7 29 15 8 8 18 11 22 7 3 -4 12 0
18 8 17 22 81 60 101 60 9 0 16 7 16 15 0 9 6 12 17 8 11 -4 14 -3 9 5 -4 7
-3 12 3 12 13 0 71 56 71 68 0 6 9 12 20 15 11 3 20 11 20 17 0 7 -7 9 -15 6
-44 -18 -50 -17 -26 3 16 15 30 19 48 15 16 -4 28 -2 33 7 7 10 11 10 24 -1
14 -11 16 -10 10 5 -5 13 -4 16 5 11 6 -4 11 -4 10 1 -3 20 3 33 29 60 33 35
62 76 89 128 12 22 46 85 77 141 55 99 80 154 71 154 -3 0 -11 -10 -18 -22z
m-287 -428 c0 -5 -5 -10 -11 -10 -5 0 -7 5 -4 10 3 6 8 10 11 10 2 0 4 -4 4
-10z m20 -20 c0 -5 -5 -10 -11 -10 -5 0 -7 5 -4 10 3 6 8 10 11 10 2 0 4 -4 4
-10z m-45 -10 c3 -5 2 -10 -4 -10 -5 0 -13 5 -16 10 -3 6 -2 10 4 10 5 0 13
-4 16 -10z m-110 -90 c-3 -5 -12 -7 -20 -3 -21 7 -19 13 6 13 11 0 18 -4 14
-10z"/>
<path d="M23612 11963 c20 -21 47 -51 62 -67 14 -16 26 -24 26 -18 0 13 -102
122 -115 122 -5 0 7 -17 27 -37z"/>
<path d="M20560 11970 c0 -5 9 -10 20 -10 11 0 20 5 20 10 0 6 -9 10 -20 10
-11 0 -20 -4 -20 -10z"/>
<path d="M23520 11952 c6 -13 14 -21 18 -18 3 4 -2 14 -12 24 -18 16 -18 16
-6 -6z"/>
<path d="M23550 11910 c0 -5 5 -10 11 -10 5 0 7 5 4 10 -3 6 -8 10 -11 10 -2
0 -4 -4 -4 -10z"/>
<path d="M23075 11680 c-3 -6 1 -7 9 -4 18 7 21 14 7 14 -6 0 -13 -4 -16 -10z"/>
<path d="M20362 11555 c-55 -29 -67 -41 -21 -22 54 22 96 46 79 46 -8 -1 -34
-11 -58 -24z"/>
<path d="M21084 11534 c-3 -16 -14 -58 -25 -94 -21 -74 -19 -90 4 -28 23 60
41 138 34 145 -3 3 -9 -8 -13 -23z"/>
<path d="M20811 11534 c0 -11 3 -14 6 -6 3 7 2 16 -1 19 -3 4 -6 -2 -5 -13z"/>
<path d="M23005 11516 c4 -16 13 -43 21 -60 l14 -31 -5 29 c-4 16 -13 43 -21
60 l-14 31 5 -29z"/>
<path d="M23304 11532 c-7 -4 -1 -15 18 -30 15 -13 28 -19 28 -13 0 5 -9 16
-20 24 -11 8 -17 17 -13 20 9 9 1 9 -13 -1z"/>
<path d="M20270 11510 c-8 -5 -10 -10 -5 -10 6 0 17 5 25 10 8 5 11 10 5 10
-5 0 -17 -5 -25 -10z"/>
<path d="M22320 11436 c0 -3 9 -10 19 -16 15 -7 22 -7 27 2 4 7 4 10 -1 6 -4
-4 -16 -3 -26 3 -11 5 -19 7 -19 5z"/>
<path d="M23120 11385 c0 -5 10 -21 21 -35 13 -17 17 -18 10 -5 -17 33 -31 51
-31 40z"/>
<path d="M21026 11345 c-3 -9 -6 -22 -5 -28 0 -7 5 -1 10 12 5 13 8 26 5 28
-2 2 -6 -3 -10 -12z"/>
<path d="M20782 11320 c0 -14 2 -19 5 -12 2 6 2 18 0 25 -3 6 -5 1 -5 -13z"/>
<path d="M20985 11220 c-15 -45 -25 -83 -22 -86 5 -5 31 62 46 120 19 71 4 50
-24 -34z"/>
<path d="M22495 11120 c33 -11 67 -19 75 -17 17 4 -47 24 -101 32 -21 3 -12
-3 26 -15z"/>
<path d="M20465 11119 c-4 -6 -5 -12 -2 -15 2 -3 7 2 10 11 7 17 1 20 -8 4z"/>
<path d="M20925 11025 c-9 -36 -15 -68 -13 -71 3 -3 13 25 22 62 22 87 14 94
-9 9z"/>
<path d="M22245 10993 c29 -52 41 -69 155 -217 41 -54 80 -105 85 -113 6 -9
38 -59 72 -112 35 -53 63 -89 62 -81 0 8 -18 42 -39 75 -21 33 -53 83 -69 110
-17 28 -60 86 -96 130 -101 124 -141 177 -158 212 -9 17 -22 35 -28 38 -5 4 2
-15 16 -42z"/>
<path d="M22525 10967 c20 -12 47 -35 155 -132 30 -27 44 -37 30 -21 -41 47
-179 166 -193 166 -6 -1 -3 -6 8 -13z"/>
<path d="M20901 10924 c0 -11 3 -14 6 -6 3 7 2 16 -1 19 -3 4 -6 -2 -5 -13z"/>
<path d="M22265 10910 c3 -5 8 -10 11 -10 2 0 4 5 4 10 0 6 -5 10 -11 10 -5 0
-7 -4 -4 -10z"/>
<path d="M22281 10854 c0 -11 3 -14 6 -6 3 7 2 16 -1 19 -3 4 -6 -2 -5 -13z"/>
<path d="M22296 10810 c8 -28 58 -105 76 -116 7 -4 2 6 -10 23 -12 18 -34 51
-48 75 -15 26 -23 33 -18 18z"/>
<path d="M21018 10793 c7 -3 16 -2 19 1 4 3 -2 6 -13 5 -11 0 -14 -3 -6 -6z"/>
<path d="M22747 10760 c30 -47 107 -139 120 -144 9 -4 6 5 -9 21 -13 16 -32
39 -43 51 -38 45 -78 87 -68 72z"/>
<path d="M22680 10612 c19 -17 45 -43 59 -58 l24 -29 -18 30 c-19 32 -47 59
-80 76 -11 6 -4 -3 15 -19z"/>
<path d="M21620 10570 c0 -5 5 -10 10 -10 6 0 10 5 10 10 0 6 -4 10 -10 10 -5
0 -10 -4 -10 -10z"/>
<path d="M21721 10495 c1 -19 18 -51 18 -35 0 8 -4 22 -9 30 -5 8 -9 11 -9 5z"/>
<path d="M20288 10443 c7 -3 16 -2 19 1 4 3 -2 6 -13 5 -11 0 -14 -3 -6 -6z"/>
<path d="M21845 10440 c3 -5 8 -10 11 -10 2 0 4 5 4 10 0 6 -5 10 -11 10 -5 0
-7 -4 -4 -10z"/>
<path d="M22636 10437 c3 -10 9 -15 12 -12 3 3 0 11 -7 18 -10 9 -11 8 -5 -6z"/>
<path d="M21741 10414 c0 -11 3 -14 6 -6 3 7 2 16 -1 19 -3 4 -6 -2 -5 -13z"/>
<path d="M20332 10308 c-10 -29 -36 -105 -57 -168 -45 -138 -111 -291 -151
-351 -43 -63 -49 -79 -19 -44 56 65 119 204 190 420 25 77 51 150 57 162 6 13
9 26 6 29 -3 3 -15 -19 -26 -48z"/>
<path d="M20985 10239 c-4 -6 -5 -12 -2 -15 2 -3 7 2 10 11 7 17 1 20 -8 4z"/>
<path d="M20966 10181 c-4 -7 -5 -15 -2 -18 9 -9 19 4 14 18 -4 11 -6 11 -12
0z"/>
<path d="M21152 10060 c0 -14 2 -19 5 -12 2 6 2 18 0 25 -3 6 -5 1 -5 -13z"/>
<path d="M20911 9969 c-6 -18 -9 -34 -7 -36 2 -2 9 10 15 28 6 18 9 34 7 36
-2 2 -9 -10 -15 -28z"/>
<path d="M20445 13810 c-3 -5 -2 -10 4 -10 5 0 13 5 16 10 3 6 2 10 -4 10 -5
0 -13 -4 -16 -10z"/>
<path d="M22745 10010 c-8 -13 15 -13 35 0 12 8 11 10 -7 10 -12 0 -25 -4 -28
-10z"/>
<path d="M21965 9773 c-16 -14 -25 -24 -20 -22 41 19 65 33 65 41 0 14 -14 8
-45 -19z"/>
<path d="M15676 14373 c-105 -53 -296 -112 -421 -130 -63 -9 -185 -55 -220
-83 -76 -60 -183 -184 -190 -219 -4 -19 -31 -82 -61 -140 -47 -89 -57 -119
-65 -186 -5 -44 -14 -96 -19 -115 -6 -19 -10 -48 -10 -64 l0 -29 25 23 c21 20
37 61 61 155 4 17 3 18 -6 5 -10 -13 -11 -12 -6 3 3 10 13 41 22 70 27 89 70
182 82 180 7 -2 11 1 9 6 -2 9 41 51 52 51 3 0 24 16 46 35 22 19 49 38 60 41
10 4 25 13 32 20 8 7 29 17 47 22 18 5 53 24 77 42 24 18 36 30 27 27 -30 -10
-21 18 14 47 17 14 27 26 20 26 -6 0 -36 -24 -66 -54 -58 -58 -94 -74 -188
-82 l-50 -4 28 22 c16 13 34 28 39 34 6 6 35 24 65 40 30 16 57 32 60 35 3 3
39 16 80 28 41 13 85 27 98 32 41 16 59 9 24 -9 -18 -10 -30 -21 -26 -25 7 -7
27 1 144 55 41 20 91 41 110 48 19 8 44 20 55 27 19 13 18 14 -10 8 -16 -3 -3
6 29 20 33 14 68 34 78 45 23 25 16 24 -46 -7z m-102 -73 c-11 -11 -134 -51
-134 -44 0 5 47 24 65 28 6 1 19 7 30 14 26 15 53 16 39 2z m-154 -50 c-8 -5
-19 -10 -25 -10 -5 0 -3 5 5 10 8 5 20 10 25 10 6 0 3 -5 -5 -10z m-390 -124
c0 -2 -8 -10 -17 -17 -16 -13 -17 -12 -4 4 13 16 21 21 21 13z"/>
<path d="M21885 14330 c-3 -5 -1 -10 4 -10 6 0 11 5 11 10 0 6 -2 10 -4 10 -3
0 -8 -4 -11 -10z"/>
<path d="M23306 14324 c-4 -9 -4 -19 -1 -22 2 -3 7 3 11 12 4 9 4 19 1 22 -2
3 -7 -3 -11 -12z"/>
<path d="M21507 14309 c7 -7 15 -10 18 -7 3 3 -2 9 -12 12 -14 6 -15 5 -6 -5z"/>
<path d="M21930 14283 c12 -19 166 -133 216 -161 55 -30 8 17 -92 91 -117 87
-144 102 -124 70z"/>
<path d="M21585 14282 c6 -5 24 -12 40 -16 34 -7 15 7 -25 19 -16 5 -22 4 -15
-3z"/>
<path d="M23300 14265 c-7 -9 -8 -15 -2 -15 5 0 12 7 16 15 3 8 4 15 2 15 -2
0 -9 -7 -16 -15z"/>
<path d="M23208 14158 c-42 -46 -75 -85 -72 -87 5 -5 130 126 145 152 17 30 4
19 -73 -65z"/>
<path d="M23366 14093 c-6 -14 -5 -15 5 -6 7 7 10 15 7 18 -3 3 -9 -2 -12 -12z"/>
<path d="M22273 13901 c52 -53 112 -123 134 -156 37 -54 127 -155 139 -155 9
0 -14 35 -53 80 -22 25 -61 78 -87 117 -26 40 -66 87 -89 105 -23 18 -51 41
-61 50 -11 10 -24 18 -28 18 -5 0 -8 8 -6 17 2 12 -4 18 -20 19 -20 1 -6 -17
71 -95z"/>
<path d="M23009 13580 c-18 -26 -31 -71 -43 -139 -25 -141 -14 -149 13 -11 12
63 31 129 43 148 29 47 17 49 -13 2z"/>
<path d="M18775 13380 c10 -11 20 -20 22 -20 2 0 -2 9 -9 20 -7 11 -17 20 -22
20 -5 0 -1 -9 9 -20z"/>
<path d="M18800 13307 c0 -8 7 -20 15 -27 12 -10 15 -10 15 3 0 8 -7 20 -15
27 -12 10 -15 10 -15 -3z"/>
<path d="M23037 13250 c13 -13 56 -23 49 -12 -3 5 -17 12 -32 15 -14 2 -22 1
-17 -3z"/>
<path d="M23140 13209 c85 -39 210 -88 206 -80 -3 4 -47 25 -98 46 -51 21 -97
42 -102 46 -6 5 -19 9 -30 9 -13 0 -5 -8 24 -21z"/>
<path d="M23420 13136 c0 -2 44 -26 98 -52 76 -38 113 -64 169 -120 39 -40 87
-96 106 -126 19 -29 54 -84 78 -123 50 -79 115 -155 134 -155 7 0 33 -16 58
-35 25 -19 49 -35 52 -35 11 0 -78 72 -102 83 -26 11 -106 108 -158 192 -62
98 -142 200 -188 241 -49 43 -247 147 -247 130z"/>
<path d="M16568 12799 c-38 -23 -65 -66 -50 -81 10 -10 44 0 38 11 -3 4 9 12
25 18 27 11 29 10 18 -4 -11 -13 -9 -15 18 -12 17 2 38 -3 48 -11 16 -14 17
-13 11 8 -6 19 -4 22 18 22 14 0 26 6 26 13 1 6 7 1 14 -12 8 -14 12 -30 10
-35 -2 -6 0 -18 6 -26 8 -13 11 -12 24 5 12 17 12 22 0 39 -24 34 -15 43 11
11 17 -20 25 -43 25 -67 0 -45 38 -128 59 -129 11 0 12 -2 4 -6 -7 -2 -13 -11
-13 -18 0 -22 -18 -27 -54 -15 -28 9 -36 18 -47 57 -7 26 -14 42 -16 36 -2 -6
3 -29 11 -52 12 -37 12 -43 0 -48 -31 -12 -94 75 -115 160 -13 52 -26 67 -40
46 -15 -23 -10 -34 6 -13 14 18 14 18 15 -7 0 -37 36 -139 61 -172 30 -41 12
-48 -20 -8 -14 19 -45 55 -68 81 -24 26 -43 52 -43 59 0 6 -4 11 -10 11 -20 0
-9 -29 28 -77 59 -74 110 -115 134 -107 14 4 33 -5 67 -35 53 -44 94 -60 106
-40 5 7 4 10 -3 5 -21 -13 -122 48 -122 74 0 4 21 5 48 3 29 -3 60 1 82 11 20
9 27 15 17 16 -15 0 -17 6 -12 38 4 22 3 32 -2 25 -6 -8 -9 2 -10 27 -1 21 -9
52 -17 69 -9 16 -16 37 -16 45 0 8 -6 17 -12 19 -9 4 -9 6 1 6 8 1 32 -11 52
-25 41 -28 95 -124 85 -150 -3 -8 -2 -12 4 -9 6 3 10 -3 10 -14 0 -11 5 -23
10 -26 15 -9 12 -35 -4 -35 -7 0 -19 -7 -26 -15 -7 -8 -9 -15 -6 -15 14 0 66
31 66 39 0 16 -52 166 -71 203 -20 38 -45 59 -119 98 -67 35 -210 40 -262 9z"/>
<path d="M16791 12664 c0 -11 3 -14 6 -6 3 7 2 16 -1 19 -3 4 -6 -2 -5 -13z"/>
<path d="M16881 12644 c0 -11 3 -14 6 -6 3 7 2 16 -1 19 -3 4 -6 -2 -5 -13z"/>
<path d="M16903 12624 c-7 -7 -13 -18 -13 -24 0 -15 20 -12 26 5 9 22 0 35
-13 19z"/>
<path d="M17081 12576 c-8 -9 -10 -23 -6 -33 6 -16 8 -15 16 6 13 32 7 47 -10
27z"/>
<path d="M16930 12510 c0 -5 7 -7 15 -4 8 4 15 8 15 10 0 2 -7 4 -15 4 -8 0
-15 -4 -15 -10z"/>
<path d="M16848 12458 c5 -5 16 -8 23 -6 8 3 3 7 -10 11 -17 4 -21 3 -13 -5z"/>
<path d="M17251 12427 c2 -1 13 -9 24 -17 19 -14 19 -14 6 3 -7 9 -18 17 -24
17 -6 0 -8 -1 -6 -3z"/>
<path d="M17208 12310 c20 -22 112 -54 112 -39 0 5 -8 9 -17 9 -10 0 -38 11
-62 25 -52 30 -57 31 -33 5z"/>
<path d="M17680 11949 c0 -59 77 -172 144 -210 27 -16 11 7 -30 43 -40 35 -94
118 -94 144 0 10 -5 26 -10 34 -8 12 -10 9 -10 -11z"/>
<path d="M17930 11861 c0 -19 20 -61 29 -61 16 0 5 65 -13 68 -9 2 -16 -1 -16
-7z"/>
<path d="M17960 11695 c-82 -12 -68 -24 17 -15 47 5 73 15 62 23 -2 2 -38 -2
-79 -8z"/>
<path d="M23985 11068 c-31 -17 -75 -60 -90 -88 -11 -21 -11 -29 0 -43 11 -16
13 -15 18 12 7 34 59 97 88 106 10 4 19 11 19 16 0 12 -10 11 -35 -3z"/>
<path d="M24085 11055 c39 -32 58 -32 22 0 -15 14 -33 25 -40 25 -7 0 2 -11
18 -25z"/>
<path d="M24040 11035 c0 -8 9 -15 20 -15 24 0 27 15 4 24 -22 9 -24 8 -24 -9z"/>
<path d="M24097 10993 c-3 -5 -14 -35 -26 -68 -20 -59 -20 -60 -1 -36 11 13
23 35 26 50 3 14 9 34 15 44 9 17 -4 26 -14 10z"/>
<path d="M24020 10969 c0 -5 5 -7 10 -4 6 3 10 8 10 11 0 2 -4 4 -10 4 -5 0
-10 -5 -10 -11z"/>
</g>
</svg>
